<svg xmlns="http://www.w3.org/2000/svg" version="1.1" xmlns:xlink="http://www.w3.org/1999/xlink" xmlns:svgjs="http://svgjs.dev/svgjs" width="178" height="96"><svg width="178" height="96" viewBox="0 0 178 96" fill="none" xmlns="http://www.w3.org/2000/svg">
<mask id="SvgjsMask1001" maskUnits="userSpaceOnUse" x="10" y="25" width="158" height="42" fill="black">
<rect fill="white" x="10" y="25" width="158" height="42"></rect>
<path d="M11.7877 53.06C11.7877 51.94 12.1877 51.06 12.9877 50.42C13.8277 49.78 15.0277 49.16 16.5877 48.56L28.0477 43.16C30.2477 42.16 31.3277 41.66 31.2877 41.66L33.2077 40.7C34.0877 40.22 34.8277 39.86 35.4277 39.62C36.0677 39.38 36.7477 39.26 37.4677 39.26C38.2277 39.26 38.8077 39.54 39.2077 40.1C39.6077 40.66 39.8077 41.32 39.8077 42.08C39.8077 42.88 39.5877 43.48 39.1477 43.88C38.7477 44.28 38.2077 44.66 37.5277 45.02C36.8877 45.38 36.3877 45.66 36.0277 45.86L27.3877 49.52L19.4677 52.82C21.5877 53.62 23.7277 54.36 25.8877 55.04C28.0477 55.68 30.6677 56.44 33.7477 57.32C36.0277 57.96 37.5277 58.4 38.2477 58.64C39.0077 58.88 39.5677 59.3 39.9277 59.9C40.2877 60.46 40.4677 61.04 40.4677 61.64C40.4677 62.44 40.1877 63.14 39.6277 63.74C39.1077 64.34 38.4877 64.64 37.7677 64.64C37.2077 64.64 36.3877 64.4 35.3077 63.92C34.1877 63.52 33.4277 63.26 33.0277 63.14C30.0277 62.26 25.9677 60.8 20.8477 58.76C20.0077 58.44 19.1677 58.14 18.3277 57.86C17.5277 57.54 16.8277 57.28 16.2277 57.08C15.0277 56.68 13.9877 56.12 13.1077 55.4C12.2277 54.68 11.7877 53.9 11.7877 53.06ZM105.786 26.48C106.426 26.48 106.946 26.66 107.346 27.02C107.746 27.34 107.946 27.74 107.946 28.22C107.946 28.66 107.846 29.06 107.646 29.42C106.326 31.5 105.186 33.44 104.226 35.24C103.266 37.04 102.066 39.38 100.626 42.26C100.066 43.38 99.1657 45.16 97.9257 47.6C97.3257 48.76 96.4657 50.66 95.3457 53.3C93.7057 56.98 92.3657 59.78 91.3257 61.7C90.0857 64.1 88.6657 65.3 87.0657 65.3C85.0257 65.3 84.0057 64.58 84.0057 63.14C84.0057 62.58 84.1857 62.06 84.5457 61.58C86.7057 58.42 88.5457 55.36 90.0657 52.4C91.6257 49.4 93.3057 45.9 95.1057 41.9C97.1457 37.34 98.8657 33.78 100.266 31.22C100.946 29.86 101.666 28.74 102.426 27.86C103.226 26.94 104.346 26.48 105.786 26.48ZM131.04 30.74C132.28 32.42 132.9 34.22 132.9 36.14C132.9 37.5 132.6 38.72 132 39.8C131.4 40.88 130.46 42.1 129.18 43.46C128.06 44.62 127.24 45.72 126.72 46.76C126.2 47.76 125.86 48.7 125.7 49.58C125.58 50.42 125.44 51.76 125.28 53.6C125.28 54.52 124.96 55.2 124.32 55.64C123.68 56.04 123.02 56.24 122.34 56.24C120.54 56.24 119.64 55.16 119.64 53C119.64 51.84 119.84 50.46 120.24 48.86C120.64 47.26 121.38 45.52 122.46 43.64C122.82 43 123.28 42.36 123.84 41.72C124.44 41.08 124.82 40.66 124.98 40.46C125.62 39.78 126.16 39.08 126.6 38.36C127.04 37.6 127.26 36.94 127.26 36.38C127.26 35.74 127.16 35.24 126.96 34.88C126.8 34.52 126.54 34.12 126.18 33.68C125.66 33.08 124.98 32.6 124.14 32.24C123.3 31.88 122.52 31.7 121.8 31.7C120.64 31.7 119.56 31.92 118.56 32.36C117.6 32.76 116.82 33.3 116.22 33.98C115.66 34.62 115.38 35.28 115.38 35.96C115.38 37.08 115.6 37.92 116.04 38.48C116.48 39 116.7 39.48 116.7 39.92C116.7 40.16 116.64 40.44 116.52 40.76C116.04 41.88 115.22 42.44 114.06 42.44C112.58 42.44 111.5 41.88 110.82 40.76C110.14 39.64 109.8 38.22 109.8 36.5C109.8 34.86 110.32 33.3 111.36 31.82C112.4 30.3 113.92 29.06 115.92 28.1C117.92 27.14 120.3 26.66 123.06 26.66C124.66 26.66 126.16 27.02 127.56 27.74C128.96 28.42 130.12 29.42 131.04 30.74ZM122.34 58.52C123.54 58.52 124.5 58.94 125.22 59.78C125.82 60.38 126.12 61.2 126.12 62.24C126.12 63.12 125.7 63.86 124.86 64.46C124.02 65.02 123.1 65.3 122.1 65.3C121.38 65.3 120.68 65.1 120 64.7C119.16 64.1 118.74 63.04 118.74 61.52C118.74 60.72 119.1 60.02 119.82 59.42C120.58 58.82 121.42 58.52 122.34 58.52ZM166.164 53.06C166.164 53.9 165.724 54.68 164.844 55.4C164.004 56.12 162.984 56.68 161.784 57.08C161.504 57.16 159.844 57.76 156.804 58.88C151.404 60.96 147.464 62.38 144.984 63.14C144.104 63.38 143.324 63.66 142.644 63.98C141.484 64.42 140.664 64.64 140.184 64.64C139.504 64.64 138.884 64.34 138.324 63.74C137.764 63.1 137.484 62.4 137.484 61.64C137.484 61.04 137.664 60.46 138.024 59.9C138.384 59.3 138.964 58.88 139.764 58.64C140.484 58.4 141.984 57.96 144.264 57.32C147.344 56.44 149.964 55.68 152.124 55.04C154.284 54.36 156.424 53.62 158.544 52.82L150.624 49.52L141.984 45.86C141.624 45.66 141.064 45.36 140.304 44.96C139.544 44.56 139.004 44.14 138.684 43.7C138.364 43.26 138.204 42.72 138.204 42.08C138.204 41.32 138.404 40.66 138.804 40.1C139.204 39.54 139.784 39.26 140.544 39.26C141.224 39.26 141.844 39.38 142.404 39.62C142.964 39.82 143.784 40.18 144.864 40.7C145.784 41.22 146.384 41.54 146.664 41.66L161.424 48.56C162.984 49.16 164.164 49.78 164.964 50.42C165.764 51.06 166.164 51.94 166.164 53.06Z"></path>
</mask>
<path d="M11.7877 53.06C11.7877 51.94 12.1877 51.06 12.9877 50.42C13.8277 49.78 15.0277 49.16 16.5877 48.56L28.0477 43.16C30.2477 42.16 31.3277 41.66 31.2877 41.66L33.2077 40.7C34.0877 40.22 34.8277 39.86 35.4277 39.62C36.0677 39.38 36.7477 39.26 37.4677 39.26C38.2277 39.26 38.8077 39.54 39.2077 40.1C39.6077 40.66 39.8077 41.32 39.8077 42.08C39.8077 42.88 39.5877 43.48 39.1477 43.88C38.7477 44.28 38.2077 44.66 37.5277 45.02C36.8877 45.38 36.3877 45.66 36.0277 45.86L27.3877 49.52L19.4677 52.82C21.5877 53.62 23.7277 54.36 25.8877 55.04C28.0477 55.68 30.6677 56.44 33.7477 57.32C36.0277 57.96 37.5277 58.4 38.2477 58.64C39.0077 58.88 39.5677 59.3 39.9277 59.9C40.2877 60.46 40.4677 61.04 40.4677 61.64C40.4677 62.44 40.1877 63.14 39.6277 63.74C39.1077 64.34 38.4877 64.64 37.7677 64.64C37.2077 64.64 36.3877 64.4 35.3077 63.92C34.1877 63.52 33.4277 63.26 33.0277 63.14C30.0277 62.26 25.9677 60.8 20.8477 58.76C20.0077 58.44 19.1677 58.14 18.3277 57.86C17.5277 57.54 16.8277 57.28 16.2277 57.08C15.0277 56.68 13.9877 56.12 13.1077 55.4C12.2277 54.68 11.7877 53.9 11.7877 53.06ZM105.786 26.48C106.426 26.48 106.946 26.66 107.346 27.02C107.746 27.34 107.946 27.74 107.946 28.22C107.946 28.66 107.846 29.06 107.646 29.42C106.326 31.5 105.186 33.44 104.226 35.24C103.266 37.04 102.066 39.38 100.626 42.26C100.066 43.38 99.1657 45.16 97.9257 47.6C97.3257 48.76 96.4657 50.66 95.3457 53.3C93.7057 56.98 92.3657 59.78 91.3257 61.7C90.0857 64.1 88.6657 65.3 87.0657 65.3C85.0257 65.3 84.0057 64.58 84.0057 63.14C84.0057 62.58 84.1857 62.06 84.5457 61.58C86.7057 58.42 88.5457 55.36 90.0657 52.4C91.6257 49.4 93.3057 45.9 95.1057 41.9C97.1457 37.34 98.8657 33.78 100.266 31.22C100.946 29.86 101.666 28.74 102.426 27.86C103.226 26.94 104.346 26.48 105.786 26.48ZM131.04 30.74C132.28 32.42 132.9 34.22 132.9 36.14C132.9 37.5 132.6 38.72 132 39.8C131.4 40.88 130.46 42.1 129.18 43.46C128.06 44.62 127.24 45.72 126.72 46.76C126.2 47.76 125.86 48.7 125.7 49.58C125.58 50.42 125.44 51.76 125.28 53.6C125.28 54.52 124.96 55.2 124.32 55.64C123.68 56.04 123.02 56.24 122.34 56.24C120.54 56.24 119.64 55.16 119.64 53C119.64 51.84 119.84 50.46 120.24 48.86C120.64 47.26 121.38 45.52 122.46 43.64C122.82 43 123.28 42.36 123.84 41.72C124.44 41.08 124.82 40.66 124.98 40.46C125.62 39.78 126.16 39.08 126.6 38.36C127.04 37.6 127.26 36.94 127.26 36.38C127.26 35.74 127.16 35.24 126.96 34.88C126.8 34.52 126.54 34.12 126.18 33.68C125.66 33.08 124.98 32.6 124.14 32.24C123.3 31.88 122.52 31.7 121.8 31.7C120.64 31.7 119.56 31.92 118.56 32.36C117.6 32.76 116.82 33.3 116.22 33.98C115.66 34.62 115.38 35.28 115.38 35.96C115.38 37.08 115.6 37.92 116.04 38.48C116.48 39 116.7 39.48 116.7 39.92C116.7 40.16 116.64 40.44 116.52 40.76C116.04 41.88 115.22 42.44 114.06 42.44C112.58 42.44 111.5 41.88 110.82 40.76C110.14 39.64 109.8 38.22 109.8 36.5C109.8 34.86 110.32 33.3 111.36 31.82C112.4 30.3 113.92 29.06 115.92 28.1C117.92 27.14 120.3 26.66 123.06 26.66C124.66 26.66 126.16 27.02 127.56 27.74C128.96 28.42 130.12 29.42 131.04 30.74ZM122.34 58.52C123.54 58.52 124.5 58.94 125.22 59.78C125.82 60.38 126.12 61.2 126.12 62.24C126.12 63.12 125.7 63.86 124.86 64.46C124.02 65.02 123.1 65.3 122.1 65.3C121.38 65.3 120.68 65.1 120 64.7C119.16 64.1 118.74 63.04 118.74 61.52C118.74 60.72 119.1 60.02 119.82 59.42C120.58 58.82 121.42 58.52 122.34 58.52ZM166.164 53.06C166.164 53.9 165.724 54.68 164.844 55.4C164.004 56.12 162.984 56.68 161.784 57.08C161.504 57.16 159.844 57.76 156.804 58.88C151.404 60.96 147.464 62.38 144.984 63.14C144.104 63.38 143.324 63.66 142.644 63.98C141.484 64.42 140.664 64.64 140.184 64.64C139.504 64.64 138.884 64.34 138.324 63.74C137.764 63.1 137.484 62.4 137.484 61.64C137.484 61.04 137.664 60.46 138.024 59.9C138.384 59.3 138.964 58.88 139.764 58.64C140.484 58.4 141.984 57.96 144.264 57.32C147.344 56.44 149.964 55.68 152.124 55.04C154.284 54.36 156.424 53.62 158.544 52.82L150.624 49.52L141.984 45.86C141.624 45.66 141.064 45.36 140.304 44.96C139.544 44.56 139.004 44.14 138.684 43.7C138.364 43.26 138.204 42.72 138.204 42.08C138.204 41.32 138.404 40.66 138.804 40.1C139.204 39.54 139.784 39.26 140.544 39.26C141.224 39.26 141.844 39.38 142.404 39.62C142.964 39.82 143.784 40.18 144.864 40.7C145.784 41.22 146.384 41.54 146.664 41.66L161.424 48.56C162.984 49.16 164.164 49.78 164.964 50.42C165.764 51.06 166.164 51.94 166.164 53.06Z" fill="black" fill-opacity="0.79"></path>
<path d="M12.9877 50.42L12.3817 49.6246L12.3723 49.6317L12.363 49.6391L12.9877 50.42ZM16.5877 48.56L16.9467 49.4933L16.9809 49.4802L17.014 49.4646L16.5877 48.56ZM28.0477 43.16L27.6339 42.2495L27.6215 42.2554L28.0477 43.16ZM31.2877 41.66L30.8405 40.7656L31.2877 42.66V41.66ZM33.2077 40.7L33.6549 41.5944L33.6709 41.5864L33.6866 41.5779L33.2077 40.7ZM35.4277 39.62L35.0766 38.6837L35.0664 38.6875L35.0563 38.6915L35.4277 39.62ZM39.2077 40.1L40.0215 39.5188L40.0215 39.5188L39.2077 40.1ZM39.1477 43.88L38.4751 43.1401L38.4575 43.1561L38.4406 43.1729L39.1477 43.88ZM37.5277 45.02L37.0598 44.1362L37.0486 44.1422L37.0375 44.1484L37.5277 45.02ZM36.0277 45.86L36.4178 46.7808L36.4668 46.76L36.5134 46.7342L36.0277 45.86ZM27.3877 49.52L27.7724 50.4431L27.7778 50.4408L27.3877 49.52ZM19.4677 52.82L19.0831 51.8969L16.7573 52.866L19.1147 53.7556L19.4677 52.82ZM25.8877 55.04L25.5874 55.9938L25.5955 55.9964L25.6036 55.9988L25.8877 55.04ZM33.7477 57.32L33.473 58.2815L33.4775 58.2828L33.7477 57.32ZM38.2477 58.64L37.9315 59.5887L37.939 59.5912L37.9466 59.5936L38.2477 58.64ZM39.9277 59.9L39.0702 60.4145L39.0782 60.4278L39.0866 60.4408L39.9277 59.9ZM39.6277 63.74L38.8967 63.0577L38.8841 63.0711L38.872 63.0851L39.6277 63.74ZM35.3077 63.92L35.7139 63.0062L35.6795 62.9909L35.6441 62.9783L35.3077 63.92ZM33.0277 63.14L33.3151 62.1822L33.3092 62.1804L33.0277 63.14ZM20.8477 58.76L21.2179 57.831L21.2108 57.8282L21.2037 57.8255L20.8477 58.76ZM18.3277 57.86L17.9563 58.7885L17.9836 58.7994L18.0115 58.8087L18.3277 57.86ZM16.2277 57.08L15.9115 58.0287L15.9115 58.0287L16.2277 57.08ZM13.1077 55.4L13.741 54.626L13.741 54.626L13.1077 55.4ZM12.7877 53.06C12.7877 52.2114 13.0738 51.6318 13.6124 51.2009L12.363 49.6391C11.3017 50.4882 10.7877 51.6686 10.7877 53.06H12.7877ZM13.5938 51.2154C14.3277 50.6562 15.4301 50.0767 16.9467 49.4933L16.2288 47.6267C14.6254 48.2433 13.3277 48.9038 12.3817 49.6246L13.5938 51.2154ZM17.014 49.4646L28.474 44.0646L27.6215 42.2554L16.1615 47.6554L17.014 49.4646ZM28.4615 44.0704C29.562 43.5702 30.3846 43.194 30.9279 42.9425C31.1987 42.8171 31.4041 42.7208 31.541 42.655C31.6074 42.6231 31.6671 42.5938 31.7122 42.5703C31.7285 42.5618 31.7697 42.5404 31.8121 42.5139C31.8246 42.5061 31.8458 42.4925 31.8709 42.4744C31.8871 42.4627 31.946 42.4203 32.0096 42.354C32.0388 42.3236 32.1093 42.2473 32.1711 42.1314C32.2226 42.0347 32.3623 41.7339 32.2412 41.3556C32.1074 40.9376 31.7728 40.7697 31.6165 40.7154C31.4632 40.6622 31.3346 40.66 31.2877 40.66V42.66C31.2415 42.66 31.1134 42.6579 30.9605 42.6048C30.8044 42.5506 30.4701 42.3829 30.3364 41.9652C30.2154 41.5871 30.355 41.2865 30.4063 41.1903C30.4679 41.0747 30.5381 40.9989 30.5668 40.9689C30.6295 40.9036 30.6869 40.8624 30.7011 40.8522C30.7241 40.8356 30.7428 40.8237 30.7521 40.8179C30.782 40.7992 30.8019 40.7894 30.7883 40.7965C30.7734 40.8043 30.738 40.8219 30.6744 40.8525C30.5513 40.9117 30.3568 41.0029 30.0876 41.1275C29.5509 41.376 28.7335 41.7498 27.6339 42.2496L28.4615 44.0704ZM31.7349 42.5544L33.6549 41.5944L32.7605 39.8056L30.8405 40.7656L31.7349 42.5544ZM33.6866 41.5779C34.5485 41.1078 35.2501 40.7681 35.7991 40.5485L35.0563 38.6915C34.4053 38.9519 33.627 39.3322 32.7289 39.8221L33.6866 41.5779ZM35.7789 40.5563C36.3007 40.3606 36.8612 40.26 37.4677 40.26V38.26C36.6343 38.26 35.8348 38.3994 35.0766 38.6837L35.7789 40.5563ZM37.4677 40.26C37.944 40.26 38.2034 40.4144 38.394 40.6812L40.0215 39.5188C39.4121 38.6656 38.5115 38.26 37.4677 38.26V40.26ZM38.394 40.6812C38.6602 41.054 38.8077 41.5056 38.8077 42.08H40.8077C40.8077 41.1344 40.5552 40.266 40.0215 39.5188L38.394 40.6812ZM38.8077 42.08C38.8077 42.7 38.6416 42.9886 38.4751 43.1401L39.8204 44.6199C40.5338 43.9714 40.8077 43.06 40.8077 42.08H38.8077ZM38.4406 43.1729C38.1313 43.4822 37.6812 43.8073 37.0598 44.1362L37.9956 45.9038C38.7343 45.5127 39.3642 45.0778 39.8548 44.5871L38.4406 43.1729ZM37.0375 44.1484C36.398 44.5081 35.8998 44.7871 35.5421 44.9858L36.5134 46.7342C36.8757 46.5329 37.3774 46.2519 38.018 45.8916L37.0375 44.1484ZM35.6377 44.9392L26.9977 48.5992L27.7778 50.4408L36.4178 46.7808L35.6377 44.9392ZM27.0031 48.5969L19.0831 51.8969L19.8524 53.7431L27.7724 50.4431L27.0031 48.5969ZM19.1147 53.7556C21.2521 54.5622 23.4097 55.3083 25.5874 55.9938L26.188 54.0862C24.0458 53.4117 21.9234 52.6778 19.8208 51.8844L19.1147 53.7556ZM25.6036 55.9988C27.7678 56.64 30.3911 57.401 33.473 58.2815L34.0225 56.3585C30.9444 55.479 28.3277 54.72 26.1718 54.0812L25.6036 55.9988ZM33.4775 58.2828C35.762 58.9241 37.2383 59.3576 37.9315 59.5887L38.564 57.6913C37.8171 57.4424 36.2934 56.9959 34.018 56.3572L33.4775 58.2828ZM37.9466 59.5936C38.5083 59.771 38.8533 60.053 39.0702 60.4145L40.7852 59.3855C40.2821 58.547 39.5071 57.989 38.5489 57.6864L37.9466 59.5936ZM39.0866 60.4408C39.3546 60.8578 39.4677 61.2524 39.4677 61.64H41.4677C41.4677 60.8276 41.2208 60.0622 40.7689 59.3592L39.0866 60.4408ZM39.4677 61.64C39.4677 62.1795 39.2888 62.6375 38.8967 63.0577L40.3588 64.4223C41.0867 63.6425 41.4677 62.7005 41.4677 61.64H39.4677ZM38.872 63.0851C38.5201 63.4912 38.1658 63.64 37.7677 63.64V65.64C38.8096 65.64 39.6954 65.1888 40.3834 64.3949L38.872 63.0851ZM37.7677 63.64C37.4323 63.64 36.7769 63.4786 35.7139 63.0062L34.9016 64.8338C35.9986 65.3214 36.9832 65.64 37.7677 65.64V63.64ZM35.6441 62.9783C34.5272 62.5794 33.7436 62.3107 33.3151 62.1822L32.7404 64.0978C33.1119 64.2093 33.8483 64.4606 34.9714 64.8617L35.6441 62.9783ZM33.3092 62.1804C30.3535 61.3134 26.3271 59.8667 21.2179 57.831L20.4776 59.689C25.6084 61.7333 29.7019 63.2066 32.7463 64.0996L33.3092 62.1804ZM21.2037 57.8255C20.3508 57.5006 19.4975 57.1958 18.644 56.9113L18.0115 58.8087C18.838 59.0842 19.6647 59.3794 20.4917 59.6945L21.2037 57.8255ZM18.6991 56.9315C17.887 56.6067 17.1678 56.3393 16.544 56.1313L15.9115 58.0287C16.4877 58.2207 17.1685 58.4733 17.9563 58.7885L18.6991 56.9315ZM16.544 56.1313C15.4464 55.7655 14.5168 55.2608 13.741 54.626L12.4745 56.174C13.4587 56.9792 14.609 57.5945 15.9115 58.0287L16.544 56.1313ZM13.741 54.626C13.0059 54.0246 12.7877 53.5032 12.7877 53.06H10.7877C10.7877 54.2968 11.4495 55.3354 12.4745 56.174L13.741 54.626ZM107.346 27.02L106.677 27.7633L106.698 27.7827L106.721 27.8009L107.346 27.02ZM107.646 29.42L108.49 29.9558L108.506 29.9312L108.52 29.9056L107.646 29.42ZM104.226 35.24L105.108 35.7106L105.108 35.7106L104.226 35.24ZM100.626 42.26L101.52 42.7072L101.52 42.7072L100.626 42.26ZM97.9257 47.6L98.8139 48.0594L98.8172 48.053L97.9257 47.6ZM95.3457 53.3L96.2591 53.7071L96.2628 53.6988L96.2663 53.6905L95.3457 53.3ZM91.3257 61.7L90.4464 61.2237L90.4418 61.2323L90.4373 61.241L91.3257 61.7ZM84.5457 61.58L85.3457 62.18L85.3589 62.1624L85.3713 62.1443L84.5457 61.58ZM90.0657 52.4L89.1785 51.9386L89.1761 51.9432L90.0657 52.4ZM95.1057 41.9L96.0176 42.3104L96.0185 42.3084L95.1057 41.9ZM100.266 31.22L101.143 31.6998L101.152 31.6837L101.16 31.6672L100.266 31.22ZM102.426 27.86L101.671 27.2038L101.669 27.2064L102.426 27.86ZM105.786 27.48C106.228 27.48 106.494 27.5989 106.677 27.7633L108.015 26.2767C107.397 25.7211 106.623 25.48 105.786 25.48V27.48ZM106.721 27.8009C106.902 27.9458 106.946 28.0665 106.946 28.22H108.946C108.946 27.4135 108.589 26.7342 107.97 26.2391L106.721 27.8009ZM106.946 28.22C106.946 28.5021 106.883 28.7331 106.772 28.9344L108.52 29.9056C108.808 29.3869 108.946 28.8179 108.946 28.22H106.946ZM106.801 28.8842C105.471 30.9812 104.317 32.9432 103.343 34.7694L105.108 35.7106C106.054 33.9368 107.181 32.0188 108.49 29.9558L106.801 28.8842ZM103.343 34.7694C102.378 36.5802 101.173 38.9289 99.7313 41.8128L101.52 42.7072C102.958 39.8311 104.154 37.4998 105.108 35.7106L103.343 34.7694ZM99.7313 41.8128C99.1728 42.9297 98.2741 44.7072 97.0342 47.1469L98.8172 48.053C100.057 45.6128 100.959 43.8303 101.52 42.7072L99.7313 41.8128ZM97.0375 47.1406C96.4187 48.3368 95.5462 50.2669 94.4251 52.9094L96.2663 53.6905C97.3852 51.0531 98.2327 49.1832 98.8139 48.0594L97.0375 47.1406ZM94.4323 52.8929C92.7956 56.5655 91.4679 59.3378 90.4464 61.2237L92.205 62.1763C93.2635 60.2222 94.6158 57.3945 96.2591 53.7071L94.4323 52.8929ZM90.4373 61.241C89.2445 63.5496 88.0818 64.3 87.0657 64.3V66.3C89.2496 66.3 90.9269 64.6504 92.2141 62.159L90.4373 61.241ZM87.0657 64.3C86.1329 64.3 85.6121 64.1299 85.3474 63.943C85.1465 63.8012 85.0057 63.5924 85.0057 63.14H83.0057C83.0057 64.1276 83.3749 64.9988 84.194 65.577C84.9493 66.1101 85.9585 66.3 87.0657 66.3V64.3ZM85.0057 63.14C85.0057 62.8122 85.1057 62.5 85.3457 62.18L83.7457 60.98C83.2657 61.62 83.0057 62.3478 83.0057 63.14H85.0057ZM85.3713 62.1443C87.5514 58.9548 89.4136 55.859 90.9553 52.8568L89.1761 51.9432C87.6778 54.861 85.86 57.8852 83.7201 61.0157L85.3713 62.1443ZM90.9529 52.8614C92.5237 49.8405 94.212 46.3228 96.0176 42.3104L94.1938 41.4896C92.3994 45.4772 90.7277 48.9595 89.1785 51.9386L90.9529 52.8614ZM96.0185 42.3084C98.0541 37.7582 99.7617 34.2258 101.143 31.6998L99.3883 30.7402C97.9697 33.3342 96.2373 36.9218 94.1929 41.4916L96.0185 42.3084ZM101.16 31.6672C101.814 30.3601 102.49 29.315 103.183 28.5136L101.669 27.2064C100.841 28.165 100.078 29.3599 99.3713 30.7728L101.16 31.6672ZM103.18 28.5162C103.756 27.8547 104.577 27.48 105.786 27.48V25.48C104.114 25.48 102.696 26.0253 101.671 27.2038L103.18 28.5162ZM131.04 30.74L130.219 31.3118L130.227 31.3229L130.235 31.3339L131.04 30.74ZM132 39.8L131.125 39.3144L131.125 39.3144L132 39.8ZM129.18 43.46L129.899 44.1546L129.908 44.1454L129.18 43.46ZM126.72 46.76L127.607 47.2214L127.61 47.2143L127.614 47.2072L126.72 46.76ZM125.7 49.58L124.716 49.4011L124.712 49.4198L124.71 49.4386L125.7 49.58ZM125.28 53.6L124.283 53.5134L124.28 53.5566V53.6H125.28ZM124.32 55.64L124.85 56.488L124.868 56.4764L124.886 56.464L124.32 55.64ZM120.24 48.86L119.269 48.6175L119.269 48.6175L120.24 48.86ZM122.46 43.64L123.327 44.1381L123.331 44.1303L122.46 43.64ZM123.84 41.72L123.11 41.0361L123.098 41.0486L123.087 41.0615L123.84 41.72ZM124.98 40.46L124.251 39.7746L124.224 39.8039L124.199 39.8353L124.98 40.46ZM126.6 38.36L127.453 38.8814L127.459 38.8713L127.465 38.861L126.6 38.36ZM126.96 34.88L126.046 35.2861L126.064 35.3268L126.085 35.3656L126.96 34.88ZM126.18 33.68L126.954 33.0468L126.945 33.0358L126.935 33.0251L126.18 33.68ZM118.56 32.36L118.944 33.2831L118.953 33.2793L118.962 33.2753L118.56 32.36ZM116.22 33.98L115.47 33.3184L115.467 33.3215L116.22 33.98ZM116.04 38.48L115.253 39.0978L115.265 39.1121L115.276 39.1259L116.04 38.48ZM116.52 40.76L117.439 41.1539L117.448 41.1327L117.456 41.1111L116.52 40.76ZM110.82 40.76L109.965 41.279L109.965 41.279L110.82 40.76ZM111.36 31.82L112.178 32.395L112.185 32.3847L111.36 31.82ZM115.92 28.1L116.352 29.0015L116.352 29.0015L115.92 28.1ZM127.56 27.74L127.102 28.6293L127.112 28.6345L127.123 28.6395L127.56 27.74ZM125.22 59.78L124.46 60.4308L124.485 60.46L124.513 60.4871L125.22 59.78ZM124.86 64.46L125.414 65.2921L125.428 65.2831L125.441 65.2737L124.86 64.46ZM120 64.7L119.418 65.5137L119.454 65.5395L119.493 65.5619L120 64.7ZM119.82 59.42L119.2 58.6351L119.19 58.6433L119.179 58.6518L119.82 59.42ZM130.235 31.3339C131.36 32.8578 131.9 34.4527 131.9 36.14H133.9C133.9 33.9873 133.199 31.9822 131.844 30.1461L130.235 31.3339ZM131.9 36.14C131.9 37.3476 131.635 38.3975 131.125 39.3144L132.874 40.2856C133.564 39.0425 133.9 37.6524 133.9 36.14H131.9ZM131.125 39.3144C130.581 40.2952 129.7 41.4475 128.451 42.7746L129.908 44.1454C131.219 42.7525 132.219 41.4648 132.874 40.2856L131.125 39.3144ZM128.46 42.7654C127.295 43.9724 126.404 45.1544 125.825 46.3128L127.614 47.2072C128.075 46.2856 128.824 45.2676 129.899 44.1546L128.46 42.7654ZM125.832 46.2986C125.278 47.3655 124.898 48.4009 124.716 49.4011L126.683 49.7589C126.822 48.9991 127.122 48.1545 127.607 47.2214L125.832 46.2986ZM124.71 49.4386C124.585 50.3078 124.444 51.6711 124.283 53.5134L126.276 53.6866C126.436 51.8489 126.574 50.5322 126.69 49.7214L124.71 49.4386ZM124.28 53.6C124.28 54.2604 124.069 54.5988 123.753 54.816L124.886 56.464C125.85 55.8012 126.28 54.7796 126.28 53.6H124.28ZM123.79 54.792C123.291 55.1039 122.812 55.24 122.34 55.24V57.24C123.227 57.24 124.069 56.9761 124.85 56.488L123.79 54.792ZM122.34 55.24C121.647 55.24 121.292 55.0408 121.083 54.7898C120.845 54.5039 120.64 53.9658 120.64 53H118.64C118.64 54.1942 118.885 55.2761 119.546 56.0702C120.237 56.8992 121.233 57.24 122.34 57.24V55.24ZM120.64 53C120.64 51.948 120.822 50.6536 121.21 49.1025L119.269 48.6175C118.857 50.2664 118.64 51.7319 118.64 53H120.64ZM121.21 49.1025C121.582 47.6151 122.279 45.9617 123.327 44.1381L121.593 43.1419C120.48 45.0783 119.698 46.9049 119.269 48.6175L121.21 49.1025ZM123.331 44.1303C123.653 43.5588 124.071 42.9746 124.592 42.3785L123.087 41.0615C122.489 41.7454 121.987 42.4412 121.588 43.1497L123.331 44.1303ZM124.569 42.4039C125.162 41.7715 125.571 41.3214 125.76 41.0847L124.199 39.8353C124.068 39.9986 123.717 40.3885 123.11 41.0361L124.569 42.4039ZM125.708 41.1454C126.39 40.4204 126.973 39.6661 127.453 38.8814L125.746 37.8385C125.346 38.4939 124.849 39.1396 124.251 39.7746L125.708 41.1454ZM127.465 38.861C127.948 38.0275 128.26 37.1888 128.26 36.38H126.26C126.26 36.6912 126.132 37.1725 125.734 37.859L127.465 38.861ZM128.26 36.38C128.26 35.6557 128.15 34.9632 127.834 34.3944L126.085 35.3656C126.169 35.5168 126.26 35.8243 126.26 36.38H128.26ZM127.873 34.4739C127.665 34.005 127.347 33.5282 126.954 33.0468L125.406 34.3132C125.732 34.7118 125.934 35.035 126.046 35.2861L127.873 34.4739ZM126.935 33.0251C126.302 32.2947 125.492 31.7314 124.534 31.3209L123.746 33.1591C124.468 33.4686 125.017 33.8653 125.424 34.3349L126.935 33.0251ZM124.534 31.3209C123.601 30.9213 122.686 30.7 121.8 30.7V32.7C122.353 32.7 122.998 32.8387 123.746 33.1591L124.534 31.3209ZM121.8 30.7C120.51 30.7 119.292 30.9454 118.157 31.4447L118.962 33.2753C119.828 32.8946 120.77 32.7 121.8 32.7V30.7ZM118.175 31.4369C117.096 31.8867 116.184 32.509 115.47 33.3184L116.969 34.6416C117.455 34.091 118.104 33.6333 118.944 33.2831L118.175 31.4369ZM115.467 33.3215C114.789 34.0965 114.38 34.9815 114.38 35.96H116.38C116.38 35.5784 116.53 35.1435 116.972 34.6385L115.467 33.3215ZM114.38 35.96C114.38 37.1837 114.615 38.2859 115.253 39.0978L116.826 37.8622C116.584 37.5541 116.38 36.9763 116.38 35.96H114.38ZM115.276 39.1259C115.643 39.5597 115.7 39.8161 115.7 39.92H117.7C117.7 39.1439 117.316 38.4403 116.803 37.8341L115.276 39.1259ZM115.7 39.92C115.7 40.0009 115.678 40.1574 115.583 40.4089L117.456 41.1111C117.602 40.7226 117.7 40.3191 117.7 39.92H115.7ZM115.6 40.3661C115.418 40.7911 115.201 41.0435 114.981 41.1942C114.763 41.3426 114.473 41.44 114.06 41.44V43.44C114.806 43.44 115.506 43.2574 116.109 42.8458C116.708 42.4365 117.141 41.8489 117.439 41.1539L115.6 40.3661ZM114.06 41.44C112.875 41.44 112.147 41.019 111.674 40.241L109.965 41.279C110.852 42.741 112.284 43.44 114.06 43.44V41.44ZM111.674 40.241C111.115 39.3192 110.8 38.0929 110.8 36.5H108.8C108.8 38.3471 109.165 39.9608 109.965 41.279L111.674 40.241ZM110.8 36.5C110.8 35.0869 111.243 33.7247 112.178 32.3949L110.541 31.2451C109.396 32.8753 108.8 34.6331 108.8 36.5H110.8ZM112.185 32.3847C113.107 31.0364 114.478 29.9011 116.352 29.0015L115.487 27.1985C113.361 28.2189 111.692 29.5636 110.534 31.2553L112.185 32.3847ZM116.352 29.0015C118.188 28.1202 120.414 27.66 123.06 27.66V25.66C120.185 25.66 117.651 26.1598 115.487 27.1985L116.352 29.0015ZM123.06 27.66C124.503 27.66 125.846 27.9833 127.102 28.6293L128.017 26.8507C126.473 26.0567 124.816 25.66 123.06 25.66V27.66ZM127.123 28.6395C128.364 29.2422 129.393 30.1271 130.219 31.3118L131.86 30.1682C130.846 28.7129 129.556 27.5977 127.997 26.8405L127.123 28.6395ZM122.34 59.52C123.276 59.52 123.948 59.8328 124.46 60.4308L125.979 59.1292C125.051 58.0472 123.804 57.52 122.34 57.52V59.52ZM124.513 60.4871C124.884 60.8589 125.12 61.4016 125.12 62.24H127.12C127.12 60.9984 126.755 59.9011 125.927 59.0729L124.513 60.4871ZM125.12 62.24C125.12 62.7381 124.908 63.1969 124.278 63.6463L125.441 65.2737C126.492 64.5231 127.12 63.5019 127.12 62.24H125.12ZM124.305 63.6279C123.628 64.0796 122.9 64.3 122.1 64.3V66.3C123.299 66.3 124.412 65.9604 125.414 65.2921L124.305 63.6279ZM122.1 64.3C121.575 64.3 121.048 64.1566 120.507 63.8381L119.493 65.5619C120.311 66.0434 121.185 66.3 122.1 66.3V64.3ZM120.581 63.8863C120.112 63.5511 119.74 62.8778 119.74 61.52H117.74C117.74 63.2022 118.208 64.6489 119.418 65.5137L120.581 63.8863ZM119.74 61.52C119.74 61.0691 119.924 60.6345 120.46 60.1882L119.179 58.6518C118.275 59.4055 117.74 60.3709 117.74 61.52H119.74ZM120.439 60.2049C121.033 59.7364 121.657 59.52 122.34 59.52V57.52C121.182 57.52 120.126 57.9036 119.2 58.6351L120.439 60.2049ZM164.844 55.4L164.211 54.626L164.202 54.6333L164.193 54.6407L164.844 55.4ZM161.784 57.08L162.059 58.0415L162.08 58.0356L162.1 58.0287L161.784 57.08ZM156.804 58.88L156.458 57.9417L156.451 57.9442L156.445 57.9468L156.804 58.88ZM144.984 63.14L145.247 64.1048L145.262 64.1007L145.277 64.0961L144.984 63.14ZM142.644 63.98L142.999 64.915L143.035 64.9013L143.07 64.8848L142.644 63.98ZM138.324 63.74L137.571 64.3985L137.582 64.4106L137.593 64.4223L138.324 63.74ZM138.024 59.9L138.865 60.4408L138.874 60.4278L138.881 60.4145L138.024 59.9ZM139.764 58.64L140.051 59.5978L140.066 59.5935L140.08 59.5887L139.764 58.64ZM144.264 57.32L144.534 58.2828L144.539 58.2815L144.264 57.32ZM152.124 55.04L152.408 55.9988L152.416 55.9964L152.424 55.9938L152.124 55.04ZM158.544 52.82L158.897 53.7556L161.254 52.866L158.929 51.8969L158.544 52.82ZM150.624 49.52L150.234 50.4408L150.239 50.4431L150.624 49.52ZM141.984 45.86L141.498 46.7342L141.545 46.76L141.594 46.7808L141.984 45.86ZM140.304 44.96L140.77 44.0751L140.77 44.0751L140.304 44.96ZM142.404 39.62L142.01 40.5391L142.039 40.5513L142.068 40.5617L142.404 39.62ZM144.864 40.7L145.356 39.8294L145.327 39.8133L145.298 39.799L144.864 40.7ZM146.664 41.66L147.087 40.7541L147.073 40.7472L147.058 40.7409L146.664 41.66ZM161.424 48.56L161 49.4659L161.032 49.4808L161.065 49.4933L161.424 48.56ZM164.964 50.42L165.589 49.6391L165.589 49.6391L164.964 50.42ZM165.164 53.06C165.164 53.5032 164.946 54.0246 164.211 54.626L165.477 56.174C166.502 55.3354 167.164 54.2968 167.164 53.06H165.164ZM164.193 54.6407C163.464 55.2654 162.562 55.7664 161.468 56.1313L162.1 58.0287C163.405 57.5936 164.543 56.9746 165.495 56.1593L164.193 54.6407ZM161.509 56.1185C161.182 56.212 159.466 56.8334 156.458 57.9417L157.15 59.8183C160.222 58.6866 161.826 58.108 162.059 58.0415L161.509 56.1185ZM156.445 57.9468C151.047 60.0261 147.135 61.435 144.691 62.1839L145.277 64.0961C147.793 63.325 151.761 61.8939 157.163 59.8132L156.445 57.9468ZM144.721 62.1752C143.796 62.4274 142.96 62.726 142.218 63.0752L143.07 64.8848C143.688 64.594 144.412 64.3326 145.247 64.1048L144.721 62.1752ZM142.289 63.045C141.118 63.4894 140.457 63.64 140.184 63.64V65.64C140.87 65.64 141.85 65.3506 142.999 64.915L142.289 63.045ZM140.184 63.64C139.838 63.64 139.468 63.5003 139.055 63.0577L137.593 64.4223C138.3 65.1797 139.17 65.64 140.184 65.64V63.64ZM139.077 63.0815C138.656 62.6005 138.484 62.1286 138.484 61.64H136.484C136.484 62.6714 136.872 63.5995 137.571 64.3985L139.077 63.0815ZM138.484 61.64C138.484 61.2524 138.597 60.8578 138.865 60.4408L137.183 59.3592C136.731 60.0622 136.484 60.8276 136.484 61.64H138.484ZM138.881 60.4145C139.089 60.0682 139.441 59.7809 140.051 59.5978L139.477 57.6822C138.487 57.9791 137.679 58.5318 137.166 59.3855L138.881 60.4145ZM140.08 59.5887C140.773 59.3576 142.25 58.9241 144.534 58.2828L143.994 56.3572C141.718 56.9959 140.195 57.4424 139.448 57.6913L140.08 59.5887ZM144.539 58.2815C147.621 57.401 150.244 56.64 152.408 55.9988L151.84 54.0812C149.684 54.72 147.067 55.479 143.989 56.3585L144.539 58.2815ZM152.424 55.9938C154.602 55.3083 156.76 54.5622 158.897 53.7556L158.191 51.8844C156.088 52.6778 153.966 53.4117 151.824 54.0862L152.424 55.9938ZM158.929 51.8969L151.009 48.5969L150.239 50.4431L158.159 53.7431L158.929 51.8969ZM151.014 48.5992L142.374 44.9392L141.594 46.7808L150.234 50.4408L151.014 48.5992ZM142.47 44.9858C142.099 44.7801 141.531 44.4757 140.77 44.0751L139.838 45.8449C140.597 46.2443 141.149 46.5399 141.498 46.7342L142.47 44.9858ZM140.77 44.0751C140.075 43.7094 139.685 43.3767 139.493 43.1118L137.875 44.2882C138.323 44.9033 139.013 45.4106 139.838 45.8449L140.77 44.0751ZM139.493 43.1118C139.318 42.8714 139.204 42.5471 139.204 42.08H137.204C137.204 42.8929 137.41 43.6486 137.875 44.2882L139.493 43.1118ZM139.204 42.08C139.204 41.5056 139.351 41.054 139.618 40.6812L137.99 39.5188C137.456 40.266 137.204 41.1344 137.204 42.08H139.204ZM139.618 40.6812C139.808 40.4144 140.068 40.26 140.544 40.26V38.26C139.5 38.26 138.6 38.6656 137.99 39.5188L139.618 40.6812ZM140.544 40.26C141.104 40.26 141.588 40.3584 142.01 40.5391L142.798 38.7009C142.1 38.4016 141.344 38.26 140.544 38.26V40.26ZM142.068 40.5617C142.576 40.7432 143.357 41.0842 144.43 41.601L145.298 39.799C144.211 39.2758 143.352 38.8968 142.74 38.6783L142.068 40.5617ZM144.372 41.5706C145.279 42.0831 145.93 42.4332 146.27 42.5791L147.058 40.7409C146.838 40.6468 146.289 40.3569 145.356 39.8294L144.372 41.5706ZM146.24 42.5659L161 49.4659L161.847 47.6541L147.087 40.7541L146.24 42.5659ZM161.065 49.4933C162.582 50.0766 163.654 50.6526 164.339 51.2009L165.589 49.6391C164.674 48.9074 163.386 48.2434 161.783 47.6267L161.065 49.4933ZM164.339 51.2009C164.878 51.6318 165.164 52.2114 165.164 53.06H167.164C167.164 51.6686 166.65 50.4882 165.589 49.6391L164.339 51.2009Z" fill="#60A5FA" mask="url(#path-1-outside-1_12_13)"></path>
<path d="M60.4902 52.8604L60.8436 53.2136L61.1971 52.8604L82.4371 31.6328C82.9941 31.076 83.7026 30.7897 84.6036 30.7897C85.5047 30.7897 86.2131 31.076 86.7702 31.6328C87.3272 32.1895 87.6136 32.8974 87.6136 33.7976C87.6136 34.6979 87.3272 35.4058 86.7702 35.9625L63.0102 59.7086C62.3777 60.3408 61.6625 60.6417 60.8436 60.6417C60.0248 60.6417 59.3096 60.3408 58.6771 59.7086L49.3171 50.3541C48.7601 49.7974 48.4736 49.0895 48.4736 48.1892C48.4736 47.289 48.7601 46.5811 49.3171 46.0244C49.8741 45.4676 50.5826 45.1813 51.4836 45.1813C52.3847 45.1813 53.0931 45.4676 53.6502 46.0244L60.4902 52.8604Z" fill="black" stroke="#60A5FA"></path>
</svg><style>@media (prefers-color-scheme: light) { :root { filter: none; } }
@media (prefers-color-scheme: dark) { :root { filter: none; } }
</style></svg>