<svg xmlns="http://www.w3.org/2000/svg" version="1.1" xmlns:xlink="http://www.w3.org/1999/xlink" xmlns:svgjs="http://svgjs.dev/svgjs" width="1000" height="1000"><style>
    #light-icon {
      display: inline;
    }
    #dark-icon {
      display: none;
    }

    @media (prefers-color-scheme: dark) {
      #light-icon {
        display: none;
      }
      #dark-icon {
        display: inline;
      }
    }
  </style><g id="light-icon"><svg xmlns="http://www.w3.org/2000/svg" version="1.1" xmlns:xlink="http://www.w3.org/1999/xlink" xmlns:svgjs="http://svgjs.dev/svgjs" width="1000" height="1000"><g clip-path="url(#SvgjsClipPath1129)"><rect width="1000" height="1000" fill="#ffffff"></rect><g transform="matrix(12.5,0,0,12.5,-13.41298532485962,277.96530389785767)"><svg xmlns="http://www.w3.org/2000/svg" version="1.1" xmlns:xlink="http://www.w3.org/1999/xlink" xmlns:svgjs="http://svgjs.dev/svgjs" width="80" height="40"><svg xmlns="http://www.w3.org/2000/svg" xmlns:xlink="http://www.w3.org/1999/xlink" width="80" zoomAndPan="magnify" viewBox="0 0 60 30.000001" height="40" preserveAspectRatio="xMidYMid meet" version="1.0"><defs><clipPath id="ae07342115"><path d="M 15.605469 7 L 24 7 L 24 20 L 15.605469 20 Z M 15.605469 7 " clip-rule="nonzero"></path></clipPath><clipPath id="f724fd6478"><path d="M 32 7 L 40.285156 7 L 40.285156 20 L 32 20 Z M 32 7 " clip-rule="nonzero"></path></clipPath><clipPath id="a2e80ac45b"><path d="M 24 4.382812 L 32 4.382812 L 32 21.800781 L 24 21.800781 Z M 24 4.382812 " clip-rule="nonzero"></path></clipPath><clipPath id="4ba4f7714f"><path d="M 4 5.136719 L 14.757812 5.136719 L 14.757812 21.828125 L 4 21.828125 Z M 4 5.136719 " clip-rule="nonzero"></path></clipPath><clipPath id="b80545a081"><path d="M 42.527344 5.0625 L 57.769531 5.0625 L 57.769531 18.851562 L 42.527344 18.851562 Z M 42.527344 5.0625 " clip-rule="nonzero"></path></clipPath><clipPath id="SvgjsClipPath1129"><rect width="1000" height="1000" x="0" y="0" rx="500" ry="500"></rect></clipPath></defs><g clip-path="url(#ae07342115)"><path fill="#000000" d="M 21.863281 19.347656 C 21.5 19.347656 21.253906 19.226562 21.011719 18.980469 L 16.148438 14.074219 C 15.660156 13.582031 15.660156 12.847656 16.148438 12.355469 L 21.011719 7.449219 C 21.5 6.957031 22.230469 6.957031 22.714844 7.449219 C 23.203125 7.941406 23.203125 8.675781 22.714844 9.167969 L 18.703125 13.214844 L 22.714844 17.261719 C 23.203125 17.753906 23.203125 18.488281 22.714844 18.980469 C 22.472656 19.226562 22.230469 19.347656 21.863281 19.347656 Z M 21.863281 19.347656 " fill-opacity="1" fill-rule="nonzero"></path></g><g clip-path="url(#f724fd6478)"><path fill="#000000" d="M 34.027344 19.347656 C 33.664062 19.347656 33.417969 19.226562 33.175781 18.980469 C 32.6875 18.488281 32.6875 17.753906 33.175781 17.261719 L 37.191406 13.214844 L 33.175781 9.167969 C 32.6875 8.675781 32.6875 7.941406 33.175781 7.449219 C 33.664062 6.957031 34.390625 6.957031 34.878906 7.449219 L 39.742188 12.355469 C 40.230469 12.847656 40.230469 13.582031 39.742188 14.074219 L 34.878906 18.980469 C 34.636719 19.226562 34.390625 19.347656 34.027344 19.347656 Z M 34.027344 19.347656 " fill-opacity="1" fill-rule="nonzero"></path></g><g clip-path="url(#a2e80ac45b)"><path fill="#000000" d="M 25.511719 21.800781 C 25.390625 21.800781 25.269531 21.800781 25.148438 21.679688 C 24.539062 21.433594 24.175781 20.820312 24.417969 20.085938 L 29.285156 5.363281 C 29.527344 4.75 30.136719 4.382812 30.863281 4.628906 C 31.472656 4.871094 31.835938 5.484375 31.59375 6.222656 L 26.730469 20.941406 C 26.484375 21.433594 26 21.800781 25.511719 21.800781 Z M 25.511719 21.800781 " fill-opacity="1" fill-rule="nonzero"></path></g><g clip-path="url(#4ba4f7714f)"><path fill="#ed1b24" d="M 9.496094 5.136719 C 6.066406 5.136719 4.121094 7.058594 4.066406 9.839844 L 4.066406 9.976562 L 7.09375 9.976562 L 7.09375 9.839844 C 7.160156 8.609375 8.011719 7.816406 9.296875 7.816406 C 10.570312 7.816406 11.417969 8.554688 11.417969 9.59375 C 11.417969 10.632812 10.980469 11.167969 9.539062 12.027344 C 8 12.933594 7.382812 13.9375 7.527344 15.726562 L 7.546875 16.203125 L 10.511719 16.203125 L 10.511719 15.75 C 10.511719 14.675781 10.925781 14.128906 12.410156 13.269531 C 13.988281 12.339844 14.800781 11.167969 14.800781 9.492188 C 14.800781 6.910156 12.691406 5.136719 9.496094 5.136719 Z M 9.09375 18.277344 C 7.957031 18.277344 7.246094 18.9375 7.246094 20.015625 C 7.246094 21.078125 7.957031 21.738281 9.09375 21.738281 C 10.230469 21.738281 10.929688 21.078125 10.929688 20.015625 C 10.929688 18.9375 10.230469 18.277344 9.09375 18.277344 Z M 9.09375 18.277344 " fill-opacity="1" fill-rule="nonzero"></path></g><g clip-path="url(#b80545a081)"><path fill="#1de200" d="M 42.710938 12.644531 C 43.171875 13.582031 43.632812 14.519531 44.089844 15.457031 C 44.550781 16.394531 45.042969 17.316406 45.476562 18.261719 C 45.621094 18.574219 45.992188 18.761719 46.316406 18.804688 C 46.667969 18.851562 47.03125 18.753906 47.285156 18.492188 C 48.410156 17.328125 49.476562 16.09375 50.53125 14.867188 C 51.589844 13.628906 52.664062 12.410156 53.734375 11.183594 C 54.390625 10.433594 55.039062 9.671875 55.652344 8.886719 C 55.589844 8.96875 55.527344 9.046875 55.464844 9.125 C 55.804688 8.691406 56.152344 8.257812 56.492188 7.824219 C 56.871094 7.355469 57.214844 6.863281 57.570312 6.375 C 57.769531 6.101562 57.691406 5.628906 57.441406 5.40625 C 57.199219 5.1875 56.75 5.0625 56.460938 5.28125 C 56 5.625 55.527344 5.964844 55.089844 6.339844 C 54.707031 6.671875 54.320312 7.003906 53.941406 7.335938 C 53.164062 8.015625 52.4375 8.746094 51.730469 9.496094 C 50.332031 10.976562 48.972656 12.503906 47.710938 14.109375 C 47.304688 14.628906 46.898438 15.148438 46.5 15.667969 C 46.140625 16.140625 45.804688 16.621094 45.476562 17.117188 C 46.140625 17.117188 46.804688 17.117188 47.464844 17.117188 C 46.863281 16.269531 46.3125 15.375 45.738281 14.507812 C 45.160156 13.632812 44.585938 12.765625 44.007812 11.898438 C 43.792969 11.574219 43.335938 11.40625 42.980469 11.628906 C 42.621094 11.863281 42.527344 12.273438 42.710938 12.644531 Z M 42.710938 12.644531 " fill-opacity="1" fill-rule="nonzero"></path></g></svg></svg></g></g></svg></g><g id="dark-icon"><svg xmlns="http://www.w3.org/2000/svg" version="1.1" xmlns:xlink="http://www.w3.org/1999/xlink" xmlns:svgjs="http://svgjs.dev/svgjs" width="1000" height="1000"><g clip-path="url(#SvgjsClipPath1130)"><rect width="1000" height="1000" fill="#ffffff"></rect><g transform="matrix(12.5,0,0,12.5,-13.41298532485962,277.96530389785767)"><svg xmlns="http://www.w3.org/2000/svg" version="1.1" xmlns:xlink="http://www.w3.org/1999/xlink" xmlns:svgjs="http://svgjs.dev/svgjs" width="80" height="40"><svg xmlns="http://www.w3.org/2000/svg" xmlns:xlink="http://www.w3.org/1999/xlink" width="80" zoomAndPan="magnify" viewBox="0 0 60 30.000001" height="40" preserveAspectRatio="xMidYMid meet" version="1.0"><defs><clipPath id="ae07342115"><path d="M 15.605469 7 L 24 7 L 24 20 L 15.605469 20 Z M 15.605469 7 " clip-rule="nonzero"></path></clipPath><clipPath id="f724fd6478"><path d="M 32 7 L 40.285156 7 L 40.285156 20 L 32 20 Z M 32 7 " clip-rule="nonzero"></path></clipPath><clipPath id="a2e80ac45b"><path d="M 24 4.382812 L 32 4.382812 L 32 21.800781 L 24 21.800781 Z M 24 4.382812 " clip-rule="nonzero"></path></clipPath><clipPath id="4ba4f7714f"><path d="M 4 5.136719 L 14.757812 5.136719 L 14.757812 21.828125 L 4 21.828125 Z M 4 5.136719 " clip-rule="nonzero"></path></clipPath><clipPath id="b80545a081"><path d="M 42.527344 5.0625 L 57.769531 5.0625 L 57.769531 18.851562 L 42.527344 18.851562 Z M 42.527344 5.0625 " clip-rule="nonzero"></path></clipPath><clipPath id="SvgjsClipPath1130"><rect width="1000" height="1000" x="0" y="0" rx="500" ry="500"></rect></clipPath></defs><g clip-path="url(#ae07342115)"><path fill="#000000" d="M 21.863281 19.347656 C 21.5 19.347656 21.253906 19.226562 21.011719 18.980469 L 16.148438 14.074219 C 15.660156 13.582031 15.660156 12.847656 16.148438 12.355469 L 21.011719 7.449219 C 21.5 6.957031 22.230469 6.957031 22.714844 7.449219 C 23.203125 7.941406 23.203125 8.675781 22.714844 9.167969 L 18.703125 13.214844 L 22.714844 17.261719 C 23.203125 17.753906 23.203125 18.488281 22.714844 18.980469 C 22.472656 19.226562 22.230469 19.347656 21.863281 19.347656 Z M 21.863281 19.347656 " fill-opacity="1" fill-rule="nonzero"></path></g><g clip-path="url(#f724fd6478)"><path fill="#000000" d="M 34.027344 19.347656 C 33.664062 19.347656 33.417969 19.226562 33.175781 18.980469 C 32.6875 18.488281 32.6875 17.753906 33.175781 17.261719 L 37.191406 13.214844 L 33.175781 9.167969 C 32.6875 8.675781 32.6875 7.941406 33.175781 7.449219 C 33.664062 6.957031 34.390625 6.957031 34.878906 7.449219 L 39.742188 12.355469 C 40.230469 12.847656 40.230469 13.582031 39.742188 14.074219 L 34.878906 18.980469 C 34.636719 19.226562 34.390625 19.347656 34.027344 19.347656 Z M 34.027344 19.347656 " fill-opacity="1" fill-rule="nonzero"></path></g><g clip-path="url(#a2e80ac45b)"><path fill="#000000" d="M 25.511719 21.800781 C 25.390625 21.800781 25.269531 21.800781 25.148438 21.679688 C 24.539062 21.433594 24.175781 20.820312 24.417969 20.085938 L 29.285156 5.363281 C 29.527344 4.75 30.136719 4.382812 30.863281 4.628906 C 31.472656 4.871094 31.835938 5.484375 31.59375 6.222656 L 26.730469 20.941406 C 26.484375 21.433594 26 21.800781 25.511719 21.800781 Z M 25.511719 21.800781 " fill-opacity="1" fill-rule="nonzero"></path></g><g clip-path="url(#4ba4f7714f)"><path fill="#ed1b24" d="M 9.496094 5.136719 C 6.066406 5.136719 4.121094 7.058594 4.066406 9.839844 L 4.066406 9.976562 L 7.09375 9.976562 L 7.09375 9.839844 C 7.160156 8.609375 8.011719 7.816406 9.296875 7.816406 C 10.570312 7.816406 11.417969 8.554688 11.417969 9.59375 C 11.417969 10.632812 10.980469 11.167969 9.539062 12.027344 C 8 12.933594 7.382812 13.9375 7.527344 15.726562 L 7.546875 16.203125 L 10.511719 16.203125 L 10.511719 15.75 C 10.511719 14.675781 10.925781 14.128906 12.410156 13.269531 C 13.988281 12.339844 14.800781 11.167969 14.800781 9.492188 C 14.800781 6.910156 12.691406 5.136719 9.496094 5.136719 Z M 9.09375 18.277344 C 7.957031 18.277344 7.246094 18.9375 7.246094 20.015625 C 7.246094 21.078125 7.957031 21.738281 9.09375 21.738281 C 10.230469 21.738281 10.929688 21.078125 10.929688 20.015625 C 10.929688 18.9375 10.230469 18.277344 9.09375 18.277344 Z M 9.09375 18.277344 " fill-opacity="1" fill-rule="nonzero"></path></g><g clip-path="url(#b80545a081)"><path fill="#1de200" d="M 42.710938 12.644531 C 43.171875 13.582031 43.632812 14.519531 44.089844 15.457031 C 44.550781 16.394531 45.042969 17.316406 45.476562 18.261719 C 45.621094 18.574219 45.992188 18.761719 46.316406 18.804688 C 46.667969 18.851562 47.03125 18.753906 47.285156 18.492188 C 48.410156 17.328125 49.476562 16.09375 50.53125 14.867188 C 51.589844 13.628906 52.664062 12.410156 53.734375 11.183594 C 54.390625 10.433594 55.039062 9.671875 55.652344 8.886719 C 55.589844 8.96875 55.527344 9.046875 55.464844 9.125 C 55.804688 8.691406 56.152344 8.257812 56.492188 7.824219 C 56.871094 7.355469 57.214844 6.863281 57.570312 6.375 C 57.769531 6.101562 57.691406 5.628906 57.441406 5.40625 C 57.199219 5.1875 56.75 5.0625 56.460938 5.28125 C 56 5.625 55.527344 5.964844 55.089844 6.339844 C 54.707031 6.671875 54.320312 7.003906 53.941406 7.335938 C 53.164062 8.015625 52.4375 8.746094 51.730469 9.496094 C 50.332031 10.976562 48.972656 12.503906 47.710938 14.109375 C 47.304688 14.628906 46.898438 15.148438 46.5 15.667969 C 46.140625 16.140625 45.804688 16.621094 45.476562 17.117188 C 46.140625 17.117188 46.804688 17.117188 47.464844 17.117188 C 46.863281 16.269531 46.3125 15.375 45.738281 14.507812 C 45.160156 13.632812 44.585938 12.765625 44.007812 11.898438 C 43.792969 11.574219 43.335938 11.40625 42.980469 11.628906 C 42.621094 11.863281 42.527344 12.273438 42.710938 12.644531 Z M 42.710938 12.644531 " fill-opacity="1" fill-rule="nonzero"></path></g></svg></svg></g></g></svg></g></svg>