<svg class="!h-12" xmlns="http://www.w3.org/2000/svg" xmlns:xlink="http://www.w3.org/1999/xlink" width="180" zoomAndPan="magnify" viewBox="0 0 135 30.000001" height="40" preserveAspectRatio="xMidYMid meet" version="1.0"><defs><g/><clipPath id="91f889d87f"><path d="M 83.046875 10 L 90 10 L 90 21 L 83.046875 21 Z M 83.046875 10 " clip-rule="nonzero"/></clipPath><clipPath id="ca80b2eaf3"><path d="M 98 10 L 105.546875 10 L 105.546875 21 L 98 21 Z M 98 10 " clip-rule="nonzero"/></clipPath><clipPath id="1282e265fc"><path d="M 91 7.800781 L 98 7.800781 L 98 23.042969 L 91 23.042969 Z M 91 7.800781 " clip-rule="nonzero"/></clipPath><clipPath id="0de8d3c126"><path d="M 72.753906 8.828125 L 82.914062 8.828125 L 82.914062 24.070312 L 72.753906 24.070312 Z M 72.753906 8.828125 " clip-rule="nonzero"/></clipPath><clipPath id="55f6b7e1bb"><path d="M 114.46875 9.195312 L 128.261719 9.195312 L 128.261719 21.535156 L 114.46875 21.535156 Z M 114.46875 9.195312 " clip-rule="nonzero"/></clipPath></defs><g clip-path="url(#91f889d87f)"><path fill="#000000" d="M 88.75 20.898438 C 88.417969 20.898438 88.195312 20.789062 87.976562 20.574219 L 83.539062 16.28125 C 83.09375 15.851562 83.09375 15.207031 83.539062 14.777344 L 87.976562 10.484375 C 88.417969 10.054688 89.085938 10.054688 89.527344 10.484375 C 89.972656 10.914062 89.972656 11.558594 89.527344 11.988281 L 85.867188 15.53125 L 89.527344 19.074219 C 89.972656 19.5 89.972656 20.144531 89.527344 20.574219 C 89.304688 20.789062 89.085938 20.898438 88.75 20.898438 Z M 88.75 20.898438 " fill-opacity="1" fill-rule="nonzero"/></g><g clip-path="url(#ca80b2eaf3)"><path fill="#000000" d="M 99.84375 20.898438 C 99.511719 20.898438 99.289062 20.789062 99.066406 20.574219 C 98.625 20.144531 98.625 19.5 99.066406 19.074219 L 102.726562 15.53125 L 99.066406 11.988281 C 98.625 11.558594 98.625 10.914062 99.066406 10.484375 C 99.511719 10.054688 100.175781 10.054688 100.621094 10.484375 L 105.058594 14.777344 C 105.5 15.207031 105.5 15.851562 105.058594 16.28125 L 100.621094 20.574219 C 100.398438 20.789062 100.175781 20.898438 99.84375 20.898438 Z M 99.84375 20.898438 " fill-opacity="1" fill-rule="nonzero"/></g><g clip-path="url(#1282e265fc)"><path fill="#000000" d="M 92.078125 23.042969 C 91.96875 23.042969 91.855469 23.042969 91.746094 22.9375 C 91.191406 22.722656 90.859375 22.183594 91.082031 21.542969 L 95.519531 8.660156 C 95.738281 8.125 96.292969 7.800781 96.960938 8.015625 C 97.515625 8.230469 97.847656 8.769531 97.625 9.410156 L 93.1875 22.292969 C 92.964844 22.722656 92.523438 23.042969 92.078125 23.042969 Z M 92.078125 23.042969 " fill-opacity="1" fill-rule="nonzero"/></g><g clip-path="url(#0de8d3c126)"><path fill="#ed1b24" d="M 77.949219 8.828125 C 74.78125 8.828125 72.988281 10.605469 72.9375 13.171875 L 72.9375 13.300781 L 75.730469 13.300781 L 75.730469 13.171875 C 75.792969 12.039062 76.578125 11.308594 77.765625 11.308594 C 78.941406 11.308594 79.726562 11.988281 79.726562 12.945312 C 79.726562 13.90625 79.324219 14.402344 77.992188 15.195312 C 76.566406 16.03125 76 16.960938 76.132812 18.609375 L 76.148438 19.050781 L 78.890625 19.050781 L 78.890625 18.632812 C 78.890625 17.640625 79.269531 17.136719 80.644531 16.339844 C 82.097656 15.484375 82.851562 14.402344 82.851562 12.855469 C 82.851562 10.46875 80.902344 8.828125 77.949219 8.828125 Z M 77.578125 20.96875 C 76.527344 20.96875 75.875 21.578125 75.875 22.570312 C 75.875 23.554688 76.53125 24.164062 77.578125 24.164062 C 78.628906 24.164062 79.273438 23.554688 79.273438 22.570312 C 79.273438 21.578125 78.628906 20.96875 77.578125 20.96875 Z M 77.578125 20.96875 " fill-opacity="1" fill-rule="nonzero"/></g><g clip-path="url(#55f6b7e1bb)"><path fill="#1de200" d="M 114.636719 15.980469 C 115.050781 16.820312 115.46875 17.65625 115.882812 18.496094 C 116.300781 19.332031 116.746094 20.160156 117.136719 21.003906 C 117.265625 21.285156 117.605469 21.453125 117.898438 21.488281 C 118.214844 21.53125 118.546875 21.445312 118.773438 21.210938 C 119.789062 20.167969 120.753906 19.066406 121.707031 17.964844 C 122.667969 16.859375 123.640625 15.765625 124.609375 14.671875 C 125.203125 14 125.789062 13.320312 126.34375 12.617188 C 126.285156 12.6875 126.230469 12.757812 126.171875 12.832031 C 126.480469 12.441406 126.792969 12.054688 127.105469 11.667969 C 127.445312 11.246094 127.757812 10.804688 128.078125 10.371094 C 128.261719 10.125 128.1875 9.703125 127.964844 9.503906 C 127.742188 9.304688 127.335938 9.195312 127.074219 9.390625 C 126.660156 9.699219 126.230469 10.003906 125.832031 10.339844 C 125.488281 10.636719 125.140625 10.929688 124.796875 11.226562 C 124.09375 11.835938 123.4375 12.492188 122.796875 13.164062 C 121.53125 14.488281 120.300781 15.855469 119.160156 17.289062 C 118.789062 17.753906 118.421875 18.21875 118.0625 18.683594 C 117.734375 19.109375 117.433594 19.535156 117.136719 19.980469 C 117.734375 19.980469 118.335938 19.980469 118.933594 19.980469 C 118.390625 19.21875 117.894531 18.421875 117.375 17.648438 C 116.851562 16.863281 116.328125 16.085938 115.808594 15.308594 C 115.613281 15.019531 115.199219 14.871094 114.878906 15.070312 C 114.554688 15.28125 114.46875 15.644531 114.636719 15.980469 Z M 114.636719 15.980469 " fill-opacity="1" fill-rule="nonzero"/></g><g fill="#000000" fill-opacity="1"><g transform="translate(9.866244, 17.782029)"><g><path d="M 3.125 0 L 1.484375 -4.984375 C 1.503906 -4.847656 1.523438 -4.6875 1.546875 -4.5 C 1.578125 -4.3125 1.601562 -4.097656 1.625 -3.859375 C 1.65625 -3.628906 1.675781 -3.382812 1.6875 -3.125 C 1.707031 -2.875 1.71875 -2.613281 1.71875 -2.34375 L 1.71875 0 L 0.46875 0 L 0.46875 -6.1875 L 2.296875 -6.1875 L 3.875 -1.234375 C 3.84375 -1.421875 3.804688 -1.644531 3.765625 -1.90625 C 3.734375 -2.164062 3.707031 -2.457031 3.6875 -2.78125 C 3.664062 -3.101562 3.65625 -3.453125 3.65625 -3.828125 L 3.65625 -6.1875 L 4.890625 -6.1875 L 4.890625 0 Z M 3.125 0 "/></g></g></g><g fill="#000000" fill-opacity="1"><g transform="translate(15.233206, 17.782029)"><g><path d="M 1.84375 -1.96875 C 1.882812 -1.707031 1.953125 -1.492188 2.046875 -1.328125 C 2.148438 -1.171875 2.28125 -1.054688 2.4375 -0.984375 C 2.601562 -0.910156 2.785156 -0.875 2.984375 -0.875 C 3.203125 -0.875 3.410156 -0.910156 3.609375 -0.984375 C 3.816406 -1.054688 4.015625 -1.148438 4.203125 -1.265625 L 4.765625 -0.5 C 4.546875 -0.3125 4.273438 -0.15625 3.953125 -0.03125 C 3.640625 0.09375 3.28125 0.15625 2.875 0.15625 C 2.332031 0.15625 1.878906 0.046875 1.515625 -0.171875 C 1.148438 -0.390625 0.875 -0.6875 0.6875 -1.0625 C 0.5 -1.4375 0.40625 -1.875 0.40625 -2.375 C 0.40625 -2.832031 0.492188 -3.253906 0.671875 -3.640625 C 0.859375 -4.023438 1.125 -4.332031 1.46875 -4.5625 C 1.8125 -4.789062 2.226562 -4.90625 2.71875 -4.90625 C 3.175781 -4.90625 3.570312 -4.804688 3.90625 -4.609375 C 4.238281 -4.421875 4.492188 -4.144531 4.671875 -3.78125 C 4.859375 -3.414062 4.953125 -2.976562 4.953125 -2.46875 C 4.953125 -2.382812 4.945312 -2.296875 4.9375 -2.203125 C 4.9375 -2.109375 4.929688 -2.03125 4.921875 -1.96875 Z M 2.71875 -3.953125 C 2.46875 -3.953125 2.265625 -3.859375 2.109375 -3.671875 C 1.953125 -3.492188 1.859375 -3.207031 1.828125 -2.8125 L 3.578125 -2.8125 C 3.578125 -3.15625 3.507812 -3.429688 3.375 -3.640625 C 3.238281 -3.847656 3.019531 -3.953125 2.71875 -3.953125 Z M 2.71875 -3.953125 "/></g></g></g><g fill="#000000" fill-opacity="1"><g transform="translate(20.600167, 17.782029)"><g><path d="M 1.84375 -1.96875 C 1.882812 -1.707031 1.953125 -1.492188 2.046875 -1.328125 C 2.148438 -1.171875 2.28125 -1.054688 2.4375 -0.984375 C 2.601562 -0.910156 2.785156 -0.875 2.984375 -0.875 C 3.203125 -0.875 3.410156 -0.910156 3.609375 -0.984375 C 3.816406 -1.054688 4.015625 -1.148438 4.203125 -1.265625 L 4.765625 -0.5 C 4.546875 -0.3125 4.273438 -0.15625 3.953125 -0.03125 C 3.640625 0.09375 3.28125 0.15625 2.875 0.15625 C 2.332031 0.15625 1.878906 0.046875 1.515625 -0.171875 C 1.148438 -0.390625 0.875 -0.6875 0.6875 -1.0625 C 0.5 -1.4375 0.40625 -1.875 0.40625 -2.375 C 0.40625 -2.832031 0.492188 -3.253906 0.671875 -3.640625 C 0.859375 -4.023438 1.125 -4.332031 1.46875 -4.5625 C 1.8125 -4.789062 2.226562 -4.90625 2.71875 -4.90625 C 3.175781 -4.90625 3.570312 -4.804688 3.90625 -4.609375 C 4.238281 -4.421875 4.492188 -4.144531 4.671875 -3.78125 C 4.859375 -3.414062 4.953125 -2.976562 4.953125 -2.46875 C 4.953125 -2.382812 4.945312 -2.296875 4.9375 -2.203125 C 4.9375 -2.109375 4.929688 -2.03125 4.921875 -1.96875 Z M 2.71875 -3.953125 C 2.46875 -3.953125 2.265625 -3.859375 2.109375 -3.671875 C 1.953125 -3.492188 1.859375 -3.207031 1.828125 -2.8125 L 3.578125 -2.8125 C 3.578125 -3.15625 3.507812 -3.429688 3.375 -3.640625 C 3.238281 -3.847656 3.019531 -3.953125 2.71875 -3.953125 Z M 2.71875 -3.953125 "/></g></g></g><g fill="#000000" fill-opacity="1"><g transform="translate(25.967129, 17.782029)"><g><path d="M 3.09375 -6.625 L 3.09375 -1.5 C 3.09375 -1.300781 3.144531 -1.160156 3.25 -1.078125 C 3.363281 -0.992188 3.519531 -0.953125 3.71875 -0.953125 C 3.832031 -0.953125 3.945312 -0.96875 4.0625 -1 C 4.175781 -1.03125 4.285156 -1.066406 4.390625 -1.109375 L 4.71875 -0.15625 C 4.5625 -0.0703125 4.367188 0 4.140625 0.0625 C 3.910156 0.125 3.644531 0.15625 3.34375 0.15625 C 2.78125 0.15625 2.363281 -0.00390625 2.09375 -0.328125 C 1.820312 -0.660156 1.6875 -1.109375 1.6875 -1.671875 L 1.6875 -5.671875 L 0.296875 -5.671875 L 0.296875 -6.625 Z M 3.09375 -6.625 "/></g></g></g><g fill="#000000" fill-opacity="1"><g transform="translate(31.334091, 17.782029)"><g><path d="M 4.625 -1.375 C 4.625 -1.1875 4.644531 -1.050781 4.6875 -0.96875 C 4.738281 -0.894531 4.820312 -0.835938 4.9375 -0.796875 L 4.640625 0.140625 C 4.359375 0.109375 4.117188 0.046875 3.921875 -0.046875 C 3.734375 -0.148438 3.585938 -0.296875 3.484375 -0.484375 C 3.296875 -0.273438 3.0625 -0.113281 2.78125 0 C 2.5 0.101562 2.210938 0.15625 1.921875 0.15625 C 1.429688 0.15625 1.039062 0.015625 0.75 -0.265625 C 0.457031 -0.546875 0.3125 -0.90625 0.3125 -1.34375 C 0.3125 -1.851562 0.515625 -2.25 0.921875 -2.53125 C 1.328125 -2.8125 1.894531 -2.953125 2.625 -2.953125 L 3.265625 -2.953125 L 3.265625 -3.125 C 3.265625 -3.375 3.179688 -3.554688 3.015625 -3.671875 C 2.859375 -3.796875 2.628906 -3.859375 2.328125 -3.859375 C 2.171875 -3.859375 1.972656 -3.835938 1.734375 -3.796875 C 1.492188 -3.753906 1.253906 -3.691406 1.015625 -3.609375 L 0.703125 -4.546875 C 1.003906 -4.660156 1.320312 -4.75 1.65625 -4.8125 C 1.988281 -4.875 2.285156 -4.90625 2.546875 -4.90625 C 3.253906 -4.90625 3.773438 -4.757812 4.109375 -4.46875 C 4.453125 -4.1875 4.625 -3.769531 4.625 -3.21875 Z M 2.40625 -0.859375 C 2.550781 -0.859375 2.707031 -0.898438 2.875 -0.984375 C 3.039062 -1.078125 3.171875 -1.207031 3.265625 -1.375 L 3.265625 -2.15625 L 2.90625 -2.15625 C 2.519531 -2.15625 2.234375 -2.09375 2.046875 -1.96875 C 1.859375 -1.84375 1.765625 -1.664062 1.765625 -1.4375 C 1.765625 -1.257812 1.820312 -1.117188 1.9375 -1.015625 C 2.050781 -0.910156 2.207031 -0.859375 2.40625 -0.859375 Z M 2.40625 -0.859375 "/></g></g></g><g fill="#000000" fill-opacity="1"><g transform="translate(36.701053, 17.782029)"><g><path d="M 3.53125 -4.75 L 3.53125 -0.96875 L 4.734375 -0.96875 L 4.734375 0 L 0.765625 0 L 0.765625 -0.96875 L 2.109375 -0.96875 L 2.109375 -3.78125 L 0.8125 -3.78125 L 0.8125 -4.75 Z M 2.671875 -7.234375 C 2.910156 -7.234375 3.109375 -7.15625 3.265625 -7 C 3.421875 -6.851562 3.5 -6.664062 3.5 -6.4375 C 3.5 -6.207031 3.421875 -6.015625 3.265625 -5.859375 C 3.109375 -5.710938 2.910156 -5.640625 2.671875 -5.640625 C 2.421875 -5.640625 2.21875 -5.710938 2.0625 -5.859375 C 1.90625 -6.015625 1.828125 -6.207031 1.828125 -6.4375 C 1.828125 -6.664062 1.90625 -6.851562 2.0625 -7 C 2.21875 -7.15625 2.421875 -7.234375 2.671875 -7.234375 Z M 2.671875 -7.234375 "/></g></g></g><g fill="#000000" fill-opacity="1"><g transform="translate(42.068014, 17.782029)"><g><path d="M 0.625 0 L 0.625 -4.75 L 1.859375 -4.75 L 1.953125 -4.203125 C 2.171875 -4.429688 2.394531 -4.601562 2.625 -4.71875 C 2.863281 -4.84375 3.132812 -4.90625 3.4375 -4.90625 C 3.84375 -4.90625 4.160156 -4.78125 4.390625 -4.53125 C 4.617188 -4.28125 4.734375 -3.929688 4.734375 -3.484375 L 4.734375 0 L 3.328125 0 L 3.328125 -3.078125 C 3.328125 -3.273438 3.3125 -3.429688 3.28125 -3.546875 C 3.257812 -3.660156 3.210938 -3.738281 3.140625 -3.78125 C 3.078125 -3.832031 2.988281 -3.859375 2.875 -3.859375 C 2.769531 -3.859375 2.671875 -3.835938 2.578125 -3.796875 C 2.484375 -3.753906 2.390625 -3.691406 2.296875 -3.609375 C 2.210938 -3.523438 2.125 -3.425781 2.03125 -3.3125 L 2.03125 0 Z M 0.625 0 "/></g></g></g><g fill="#000000" fill-opacity="1"><g transform="translate(47.434976, 17.782029)"><g><path d="M 3.203125 -6.34375 C 3.640625 -6.34375 4.015625 -6.285156 4.328125 -6.171875 C 4.640625 -6.054688 4.925781 -5.890625 5.1875 -5.671875 L 4.46875 -4.8125 C 4.300781 -4.945312 4.113281 -5.054688 3.90625 -5.140625 C 3.695312 -5.222656 3.472656 -5.265625 3.234375 -5.265625 C 2.972656 -5.265625 2.734375 -5.191406 2.515625 -5.046875 C 2.304688 -4.898438 2.132812 -4.664062 2 -4.34375 C 1.875 -4.03125 1.8125 -3.617188 1.8125 -3.109375 C 1.8125 -2.609375 1.875 -2.203125 2 -1.890625 C 2.125 -1.578125 2.296875 -1.347656 2.515625 -1.203125 C 2.734375 -1.054688 2.984375 -0.984375 3.265625 -0.984375 C 3.578125 -0.984375 3.832031 -1.039062 4.03125 -1.15625 C 4.238281 -1.269531 4.429688 -1.394531 4.609375 -1.53125 L 5.265625 -0.6875 C 5.035156 -0.457031 4.75 -0.257812 4.40625 -0.09375 C 4.070312 0.0703125 3.664062 0.15625 3.1875 0.15625 C 2.625 0.15625 2.125 0.03125 1.6875 -0.21875 C 1.257812 -0.46875 0.921875 -0.832031 0.671875 -1.3125 C 0.421875 -1.800781 0.296875 -2.398438 0.296875 -3.109375 C 0.296875 -3.796875 0.421875 -4.378906 0.671875 -4.859375 C 0.929688 -5.347656 1.28125 -5.71875 1.71875 -5.96875 C 2.15625 -6.21875 2.648438 -6.34375 3.203125 -6.34375 Z M 3.203125 -6.34375 "/></g></g></g><g fill="#000000" fill-opacity="1"><g transform="translate(52.801938, 17.782029)"><g><path d="M 2.6875 -4.90625 C 3.175781 -4.90625 3.585938 -4.800781 3.921875 -4.59375 C 4.265625 -4.382812 4.523438 -4.085938 4.703125 -3.703125 C 4.890625 -3.328125 4.984375 -2.890625 4.984375 -2.390625 C 4.984375 -1.859375 4.890625 -1.398438 4.703125 -1.015625 C 4.523438 -0.640625 4.265625 -0.347656 3.921875 -0.140625 C 3.578125 0.0546875 3.164062 0.15625 2.6875 0.15625 C 2.195312 0.15625 1.78125 0.0546875 1.4375 -0.140625 C 1.09375 -0.347656 0.828125 -0.640625 0.640625 -1.015625 C 0.460938 -1.390625 0.375 -1.84375 0.375 -2.375 C 0.375 -2.875 0.460938 -3.3125 0.640625 -3.6875 C 0.828125 -4.070312 1.09375 -4.367188 1.4375 -4.578125 C 1.78125 -4.796875 2.195312 -4.90625 2.6875 -4.90625 Z M 2.6875 -3.859375 C 2.394531 -3.859375 2.175781 -3.738281 2.03125 -3.5 C 1.894531 -3.269531 1.828125 -2.894531 1.828125 -2.375 C 1.828125 -1.851562 1.894531 -1.472656 2.03125 -1.234375 C 2.175781 -1.003906 2.394531 -0.890625 2.6875 -0.890625 C 2.96875 -0.890625 3.175781 -1.003906 3.3125 -1.234375 C 3.457031 -1.472656 3.53125 -1.859375 3.53125 -2.390625 C 3.53125 -2.898438 3.457031 -3.269531 3.3125 -3.5 C 3.175781 -3.738281 2.96875 -3.859375 2.6875 -3.859375 Z M 2.6875 -3.859375 "/></g></g></g><g fill="#000000" fill-opacity="1"><g transform="translate(58.1689, 17.782029)"><g><path d="M 4.140625 -4.90625 C 4.359375 -4.90625 4.539062 -4.851562 4.6875 -4.75 C 4.832031 -4.65625 4.941406 -4.503906 5.015625 -4.296875 C 5.085938 -4.097656 5.125 -3.835938 5.125 -3.515625 L 5.125 0 L 3.921875 0 L 3.921875 -3.34375 C 3.921875 -3.519531 3.90625 -3.640625 3.875 -3.703125 C 3.84375 -3.773438 3.773438 -3.8125 3.671875 -3.8125 C 3.597656 -3.8125 3.519531 -3.785156 3.4375 -3.734375 C 3.363281 -3.691406 3.28125 -3.613281 3.1875 -3.5 L 3.1875 0 L 2.1875 0 L 2.1875 -3.34375 C 2.1875 -3.519531 2.171875 -3.640625 2.140625 -3.703125 C 2.109375 -3.773438 2.046875 -3.8125 1.953125 -3.8125 C 1.878906 -3.8125 1.800781 -3.785156 1.71875 -3.734375 C 1.644531 -3.691406 1.5625 -3.613281 1.46875 -3.5 L 1.46875 0 L 0.234375 0 L 0.234375 -4.75 L 1.28125 -4.75 L 1.375 -4.28125 C 1.519531 -4.488281 1.664062 -4.644531 1.8125 -4.75 C 1.96875 -4.851562 2.148438 -4.90625 2.359375 -4.90625 C 2.535156 -4.90625 2.6875 -4.859375 2.8125 -4.765625 C 2.9375 -4.671875 3.03125 -4.53125 3.09375 -4.34375 C 3.226562 -4.507812 3.382812 -4.644531 3.5625 -4.75 C 3.738281 -4.851562 3.929688 -4.90625 4.140625 -4.90625 Z M 4.140625 -4.90625 "/></g></g></g></svg>
