<svg class="h-full" xmlns="http://www.w3.org/2000/svg" xmlns:xlink="http://www.w3.org/1999/xlink" width="240" zoomAndPan="magnify" viewBox="0 0 180 36.000001" height="48" preserveAspectRatio="xMidYMid meet" version="1.0"><defs><g/><clipPath id="5fed3de101"><path d="M 133 11 L 142.429688 11 L 142.429688 26 L 133 26 Z M 133 11 " clip-rule="nonzero"/></clipPath><clipPath id="5a9f91af68"><path d="M 124 9 L 133 9 L 133 28.601562 L 124 28.601562 Z M 124 9 " clip-rule="nonzero"/></clipPath><clipPath id="d2badd0565"><path d="M 100.085938 10.140625 L 113 10.140625 L 113 29.84375 L 100.085938 29.84375 Z M 100.085938 10.140625 " clip-rule="nonzero"/></clipPath><clipPath id="b8c467f6f9"><path d="M 145.3125 9.667969 L 162 9.667969 L 162 25.722656 L 145.3125 25.722656 Z M 145.3125 9.667969 " clip-rule="nonzero"/></clipPath></defs><path fill="#000000" d="M 121.183594 25.828125 C 120.765625 25.828125 120.484375 25.691406 120.203125 25.414062 L 114.59375 19.863281 C 114.03125 19.308594 114.03125 18.472656 114.59375 17.917969 L 120.203125 12.371094 C 120.765625 11.816406 121.605469 11.816406 122.167969 12.371094 C 122.726562 12.925781 122.726562 13.757812 122.167969 14.3125 L 117.539062 18.890625 L 122.167969 23.46875 C 122.726562 24.023438 122.726562 24.855469 122.167969 25.414062 C 121.886719 25.691406 121.605469 25.828125 121.183594 25.828125 Z M 121.183594 25.828125 " fill-opacity="1" fill-rule="nonzero"/><g clip-path="url(#5fed3de101)"><path fill="#000000" d="M 135.210938 25.828125 C 134.789062 25.828125 134.511719 25.691406 134.230469 25.414062 C 133.667969 24.855469 133.667969 24.023438 134.230469 23.46875 L 138.859375 18.890625 L 134.230469 14.3125 C 133.667969 13.757812 133.667969 12.925781 134.230469 12.371094 C 134.789062 11.816406 135.632812 11.816406 136.195312 12.371094 L 141.804688 17.917969 C 142.367188 18.472656 142.367188 19.308594 141.804688 19.863281 L 136.195312 25.414062 C 135.914062 25.691406 135.632812 25.828125 135.210938 25.828125 Z M 135.210938 25.828125 " fill-opacity="1" fill-rule="nonzero"/></g><g clip-path="url(#5a9f91af68)"><path fill="#000000" d="M 125.394531 28.601562 C 125.253906 28.601562 125.113281 28.601562 124.972656 28.464844 C 124.269531 28.1875 123.851562 27.492188 124.128906 26.660156 L 129.742188 10.011719 C 130.023438 9.316406 130.722656 8.902344 131.566406 9.179688 C 132.265625 9.457031 132.6875 10.148438 132.40625 10.980469 L 126.796875 27.632812 C 126.515625 28.1875 125.953125 28.601562 125.394531 28.601562 Z M 125.394531 28.601562 " fill-opacity="1" fill-rule="nonzero"/></g><g clip-path="url(#d2badd0565)"><path fill="#ed1b24" d="M 106.707031 10.140625 C 102.671875 10.140625 100.386719 12.398438 100.320312 15.671875 L 100.320312 15.835938 L 103.882812 15.835938 L 103.882812 15.671875 C 103.960938 14.226562 104.960938 13.292969 106.46875 13.292969 C 107.96875 13.292969 108.964844 14.160156 108.964844 15.382812 C 108.964844 16.601562 108.453125 17.234375 106.757812 18.246094 C 104.945312 19.308594 104.222656 20.492188 104.394531 22.59375 L 104.414062 23.15625 L 107.902344 23.15625 L 107.902344 22.621094 C 107.902344 21.359375 108.386719 20.714844 110.132812 19.703125 C 111.988281 18.613281 112.945312 17.234375 112.945312 15.265625 C 112.945312 12.230469 110.464844 10.140625 106.707031 10.140625 Z M 106.234375 25.59375 C 104.898438 25.59375 104.0625 26.371094 104.0625 27.632812 C 104.0625 28.886719 104.898438 29.660156 106.234375 29.660156 C 107.566406 29.660156 108.390625 28.886719 108.390625 27.632812 C 108.390625 26.371094 107.570312 25.59375 106.234375 25.59375 Z M 106.234375 25.59375 " fill-opacity="1" fill-rule="nonzero"/></g><g clip-path="url(#b8c467f6f9)"><path fill="#1de200" d="M 145.511719 18.496094 C 146.019531 19.585938 146.527344 20.675781 147.03125 21.765625 C 147.539062 22.855469 148.082031 23.929688 148.558594 25.03125 C 148.714844 25.394531 149.125 25.613281 149.484375 25.664062 C 149.871094 25.71875 150.273438 25.605469 150.550781 25.296875 C 151.785156 23.941406 152.960938 22.507812 154.121094 21.078125 C 155.289062 19.640625 156.472656 18.21875 157.652344 16.792969 C 158.375 15.921875 159.085938 15.035156 159.761719 14.121094 C 159.691406 14.214844 159.625 14.304688 159.554688 14.398438 C 159.929688 13.890625 160.3125 13.386719 160.6875 12.886719 C 161.101562 12.339844 161.484375 11.765625 161.875 11.199219 C 162.097656 10.878906 162.007812 10.332031 161.734375 10.070312 C 161.464844 9.816406 160.96875 9.671875 160.652344 9.925781 C 160.148438 10.328125 159.625 10.722656 159.140625 11.15625 C 158.71875 11.542969 158.296875 11.929688 157.878906 12.316406 C 157.023438 13.105469 156.222656 13.957031 155.445312 14.832031 C 153.90625 16.554688 152.40625 18.332031 151.019531 20.199219 C 150.570312 20.800781 150.121094 21.40625 149.683594 22.015625 C 149.285156 22.5625 148.917969 23.121094 148.558594 23.699219 C 149.285156 23.699219 150.019531 23.699219 150.746094 23.699219 C 150.082031 22.710938 149.480469 21.671875 148.84375 20.664062 C 148.210938 19.644531 147.574219 18.632812 146.941406 17.625 C 146.703125 17.246094 146.199219 17.054688 145.808594 17.3125 C 145.414062 17.585938 145.3125 18.058594 145.511719 18.496094 Z M 145.511719 18.496094 " fill-opacity="1" fill-rule="nonzero"/></g><g fill="#000000" fill-opacity="1"><g transform="translate(5.085272, 23.170466)"><g><path d="M 5.328125 0 L 2.546875 -8.515625 C 2.578125 -8.285156 2.613281 -8.007812 2.65625 -7.6875 C 2.707031 -7.363281 2.75 -7.003906 2.78125 -6.609375 C 2.820312 -6.210938 2.851562 -5.789062 2.875 -5.34375 C 2.90625 -4.90625 2.921875 -4.457031 2.921875 -4 L 2.921875 0 L 0.796875 0 L 0.796875 -10.59375 L 3.921875 -10.59375 L 6.625 -2.109375 C 6.570312 -2.429688 6.515625 -2.816406 6.453125 -3.265625 C 6.390625 -3.710938 6.335938 -4.207031 6.296875 -4.75 C 6.265625 -5.300781 6.25 -5.894531 6.25 -6.53125 L 6.25 -10.59375 L 8.375 -10.59375 L 8.375 0 Z M 5.328125 0 "/></g></g></g><g fill="#000000" fill-opacity="1"><g transform="translate(14.252479, 23.170466)"><g><path d="M 3.15625 -3.359375 C 3.21875 -2.910156 3.335938 -2.550781 3.515625 -2.28125 C 3.691406 -2.007812 3.914062 -1.8125 4.1875 -1.6875 C 4.457031 -1.5625 4.765625 -1.5 5.109375 -1.5 C 5.484375 -1.5 5.84375 -1.554688 6.1875 -1.671875 C 6.53125 -1.796875 6.863281 -1.960938 7.1875 -2.171875 L 8.15625 -0.859375 C 7.78125 -0.523438 7.316406 -0.253906 6.765625 -0.046875 C 6.222656 0.160156 5.609375 0.265625 4.921875 0.265625 C 3.992188 0.265625 3.21875 0.0820312 2.59375 -0.28125 C 1.96875 -0.65625 1.492188 -1.164062 1.171875 -1.8125 C 0.859375 -2.457031 0.703125 -3.203125 0.703125 -4.046875 C 0.703125 -4.847656 0.851562 -5.578125 1.15625 -6.234375 C 1.46875 -6.890625 1.914062 -7.410156 2.5 -7.796875 C 3.09375 -8.179688 3.8125 -8.375 4.65625 -8.375 C 5.4375 -8.375 6.109375 -8.207031 6.671875 -7.875 C 7.242188 -7.550781 7.6875 -7.078125 8 -6.453125 C 8.3125 -5.835938 8.46875 -5.09375 8.46875 -4.21875 C 8.46875 -4.082031 8.460938 -3.929688 8.453125 -3.765625 C 8.441406 -3.609375 8.429688 -3.472656 8.421875 -3.359375 Z M 4.65625 -6.765625 C 4.226562 -6.765625 3.878906 -6.609375 3.609375 -6.296875 C 3.347656 -5.984375 3.1875 -5.488281 3.125 -4.8125 L 6.109375 -4.8125 C 6.109375 -5.394531 5.992188 -5.863281 5.765625 -6.21875 C 5.546875 -6.582031 5.175781 -6.765625 4.65625 -6.765625 Z M 4.65625 -6.765625 "/></g></g></g><g fill="#000000" fill-opacity="1"><g transform="translate(23.419687, 23.170466)"><g><path d="M 3.15625 -3.359375 C 3.21875 -2.910156 3.335938 -2.550781 3.515625 -2.28125 C 3.691406 -2.007812 3.914062 -1.8125 4.1875 -1.6875 C 4.457031 -1.5625 4.765625 -1.5 5.109375 -1.5 C 5.484375 -1.5 5.84375 -1.554688 6.1875 -1.671875 C 6.53125 -1.796875 6.863281 -1.960938 7.1875 -2.171875 L 8.15625 -0.859375 C 7.78125 -0.523438 7.316406 -0.253906 6.765625 -0.046875 C 6.222656 0.160156 5.609375 0.265625 4.921875 0.265625 C 3.992188 0.265625 3.21875 0.0820312 2.59375 -0.28125 C 1.96875 -0.65625 1.492188 -1.164062 1.171875 -1.8125 C 0.859375 -2.457031 0.703125 -3.203125 0.703125 -4.046875 C 0.703125 -4.847656 0.851562 -5.578125 1.15625 -6.234375 C 1.46875 -6.890625 1.914062 -7.410156 2.5 -7.796875 C 3.09375 -8.179688 3.8125 -8.375 4.65625 -8.375 C 5.4375 -8.375 6.109375 -8.207031 6.671875 -7.875 C 7.242188 -7.550781 7.6875 -7.078125 8 -6.453125 C 8.3125 -5.835938 8.46875 -5.09375 8.46875 -4.21875 C 8.46875 -4.082031 8.460938 -3.929688 8.453125 -3.765625 C 8.441406 -3.609375 8.429688 -3.472656 8.421875 -3.359375 Z M 4.65625 -6.765625 C 4.226562 -6.765625 3.878906 -6.609375 3.609375 -6.296875 C 3.347656 -5.984375 3.1875 -5.488281 3.125 -4.8125 L 6.109375 -4.8125 C 6.109375 -5.394531 5.992188 -5.863281 5.765625 -6.21875 C 5.546875 -6.582031 5.175781 -6.765625 4.65625 -6.765625 Z M 4.65625 -6.765625 "/></g></g></g><g fill="#000000" fill-opacity="1"><g transform="translate(32.586894, 23.170466)"><g><path d="M 5.296875 -11.34375 L 5.296875 -2.546875 C 5.296875 -2.222656 5.390625 -1.988281 5.578125 -1.84375 C 5.765625 -1.707031 6.019531 -1.640625 6.34375 -1.640625 C 6.550781 -1.640625 6.753906 -1.660156 6.953125 -1.703125 C 7.148438 -1.753906 7.332031 -1.816406 7.5 -1.890625 L 8.078125 -0.28125 C 7.796875 -0.132812 7.460938 -0.0078125 7.078125 0.09375 C 6.691406 0.207031 6.242188 0.265625 5.734375 0.265625 C 4.753906 0.265625 4.035156 -0.015625 3.578125 -0.578125 C 3.117188 -1.140625 2.890625 -1.894531 2.890625 -2.84375 L 2.890625 -9.6875 L 0.5 -9.6875 L 0.5 -11.34375 Z M 5.296875 -11.34375 "/></g></g></g><g fill="#000000" fill-opacity="1"><g transform="translate(41.754101, 23.170466)"><g><path d="M 7.90625 -2.34375 C 7.90625 -2.03125 7.945312 -1.804688 8.03125 -1.671875 C 8.113281 -1.535156 8.25 -1.429688 8.4375 -1.359375 L 7.9375 0.234375 C 7.457031 0.179688 7.050781 0.0703125 6.71875 -0.09375 C 6.394531 -0.257812 6.140625 -0.507812 5.953125 -0.84375 C 5.640625 -0.46875 5.238281 -0.1875 4.75 0 C 4.269531 0.175781 3.78125 0.265625 3.28125 0.265625 C 2.445312 0.265625 1.78125 0.0234375 1.28125 -0.453125 C 0.78125 -0.929688 0.53125 -1.546875 0.53125 -2.296875 C 0.53125 -3.171875 0.875 -3.847656 1.5625 -4.328125 C 2.257812 -4.804688 3.234375 -5.046875 4.484375 -5.046875 L 5.578125 -5.046875 L 5.578125 -5.359375 C 5.578125 -5.773438 5.441406 -6.082031 5.171875 -6.28125 C 4.898438 -6.488281 4.5 -6.59375 3.96875 -6.59375 C 3.707031 -6.59375 3.375 -6.554688 2.96875 -6.484375 C 2.5625 -6.410156 2.15625 -6.304688 1.75 -6.171875 L 1.1875 -7.78125 C 1.71875 -7.976562 2.265625 -8.125 2.828125 -8.21875 C 3.398438 -8.320312 3.910156 -8.375 4.359375 -8.375 C 5.566406 -8.375 6.457031 -8.128906 7.03125 -7.640625 C 7.613281 -7.148438 7.90625 -6.441406 7.90625 -5.515625 Z M 4.109375 -1.46875 C 4.367188 -1.46875 4.640625 -1.546875 4.921875 -1.703125 C 5.210938 -1.859375 5.429688 -2.078125 5.578125 -2.359375 L 5.578125 -3.671875 L 4.984375 -3.671875 C 4.304688 -3.671875 3.8125 -3.566406 3.5 -3.359375 C 3.1875 -3.160156 3.03125 -2.859375 3.03125 -2.453125 C 3.03125 -2.148438 3.125 -1.910156 3.3125 -1.734375 C 3.5 -1.554688 3.765625 -1.46875 4.109375 -1.46875 Z M 4.109375 -1.46875 "/></g></g></g><g fill="#000000" fill-opacity="1"><g transform="translate(50.921309, 23.170466)"><g><path d="M 6.03125 -8.109375 L 6.03125 -1.65625 L 8.09375 -1.65625 L 8.09375 0 L 1.3125 0 L 1.3125 -1.65625 L 3.609375 -1.65625 L 3.609375 -6.46875 L 1.390625 -6.46875 L 1.390625 -8.109375 Z M 4.5625 -12.359375 C 4.988281 -12.359375 5.332031 -12.226562 5.59375 -11.96875 C 5.851562 -11.707031 5.984375 -11.382812 5.984375 -11 C 5.984375 -10.613281 5.851562 -10.289062 5.59375 -10.03125 C 5.332031 -9.769531 4.988281 -9.640625 4.5625 -9.640625 C 4.144531 -9.640625 3.800781 -9.769531 3.53125 -10.03125 C 3.257812 -10.289062 3.125 -10.613281 3.125 -11 C 3.125 -11.382812 3.257812 -11.707031 3.53125 -11.96875 C 3.800781 -12.226562 4.144531 -12.359375 4.5625 -12.359375 Z M 4.5625 -12.359375 "/></g></g></g><g fill="#000000" fill-opacity="1"><g transform="translate(60.088516, 23.170466)"><g><path d="M 1.0625 0 L 1.0625 -8.109375 L 3.171875 -8.109375 L 3.34375 -7.171875 C 3.707031 -7.578125 4.085938 -7.878906 4.484375 -8.078125 C 4.890625 -8.273438 5.351562 -8.375 5.875 -8.375 C 6.5625 -8.375 7.101562 -8.160156 7.5 -7.734375 C 7.894531 -7.316406 8.09375 -6.722656 8.09375 -5.953125 L 8.09375 0 L 5.6875 0 L 5.6875 -5.265625 C 5.6875 -5.597656 5.660156 -5.859375 5.609375 -6.046875 C 5.566406 -6.242188 5.488281 -6.382812 5.375 -6.46875 C 5.257812 -6.550781 5.101562 -6.59375 4.90625 -6.59375 C 4.738281 -6.59375 4.570312 -6.554688 4.40625 -6.484375 C 4.25 -6.410156 4.09375 -6.304688 3.9375 -6.171875 C 3.789062 -6.035156 3.640625 -5.867188 3.484375 -5.671875 L 3.484375 0 Z M 1.0625 0 "/></g></g></g><g fill="#000000" fill-opacity="1"><g transform="translate(69.255723, 23.170466)"><g><path d="M 5.46875 -10.859375 C 6.226562 -10.859375 6.875 -10.753906 7.40625 -10.546875 C 7.9375 -10.347656 8.425781 -10.066406 8.875 -9.703125 L 7.640625 -8.21875 C 7.347656 -8.457031 7.023438 -8.644531 6.671875 -8.78125 C 6.328125 -8.925781 5.945312 -9 5.53125 -9 C 5.082031 -9 4.675781 -8.875 4.3125 -8.625 C 3.945312 -8.375 3.65625 -7.972656 3.4375 -7.421875 C 3.21875 -6.878906 3.109375 -6.175781 3.109375 -5.3125 C 3.109375 -4.46875 3.210938 -3.773438 3.421875 -3.234375 C 3.640625 -2.703125 3.929688 -2.304688 4.296875 -2.046875 C 4.671875 -1.796875 5.097656 -1.671875 5.578125 -1.671875 C 6.109375 -1.671875 6.546875 -1.769531 6.890625 -1.96875 C 7.242188 -2.164062 7.570312 -2.382812 7.875 -2.625 L 9.015625 -1.171875 C 8.609375 -0.773438 8.113281 -0.4375 7.53125 -0.15625 C 6.957031 0.125 6.257812 0.265625 5.4375 0.265625 C 4.476562 0.265625 3.628906 0.0507812 2.890625 -0.375 C 2.148438 -0.800781 1.566406 -1.425781 1.140625 -2.25 C 0.722656 -3.082031 0.515625 -4.101562 0.515625 -5.3125 C 0.515625 -6.5 0.734375 -7.503906 1.171875 -8.328125 C 1.609375 -9.148438 2.203125 -9.773438 2.953125 -10.203125 C 3.703125 -10.640625 4.539062 -10.859375 5.46875 -10.859375 Z M 5.46875 -10.859375 "/></g></g></g><g fill="#000000" fill-opacity="1"><g transform="translate(78.422931, 23.170466)"><g><path d="M 4.578125 -8.375 C 5.421875 -8.375 6.132812 -8.195312 6.71875 -7.84375 C 7.300781 -7.488281 7.75 -6.988281 8.0625 -6.34375 C 8.375 -5.695312 8.53125 -4.941406 8.53125 -4.078125 C 8.53125 -3.179688 8.375 -2.40625 8.0625 -1.75 C 7.75 -1.101562 7.296875 -0.601562 6.703125 -0.25 C 6.117188 0.09375 5.410156 0.265625 4.578125 0.265625 C 3.753906 0.265625 3.046875 0.09375 2.453125 -0.25 C 1.867188 -0.59375 1.421875 -1.085938 1.109375 -1.734375 C 0.796875 -2.378906 0.640625 -3.15625 0.640625 -4.0625 C 0.640625 -4.925781 0.796875 -5.679688 1.109375 -6.328125 C 1.421875 -6.972656 1.867188 -7.472656 2.453125 -7.828125 C 3.046875 -8.191406 3.753906 -8.375 4.578125 -8.375 Z M 4.578125 -6.59375 C 4.085938 -6.59375 3.722656 -6.390625 3.484375 -5.984375 C 3.242188 -5.585938 3.125 -4.945312 3.125 -4.0625 C 3.125 -3.164062 3.242188 -2.515625 3.484375 -2.109375 C 3.722656 -1.710938 4.085938 -1.515625 4.578125 -1.515625 C 5.078125 -1.515625 5.441406 -1.710938 5.671875 -2.109375 C 5.910156 -2.515625 6.03125 -3.171875 6.03125 -4.078125 C 6.03125 -4.953125 5.910156 -5.585938 5.671875 -5.984375 C 5.441406 -6.390625 5.078125 -6.59375 4.578125 -6.59375 Z M 4.578125 -6.59375 "/></g></g></g><g fill="#000000" fill-opacity="1"><g transform="translate(87.590138, 23.170466)"><g><path d="M 7.0625 -8.375 C 7.445312 -8.375 7.765625 -8.289062 8.015625 -8.125 C 8.265625 -7.96875 8.453125 -7.710938 8.578125 -7.359375 C 8.703125 -7.015625 8.765625 -6.5625 8.765625 -6 L 8.765625 0 L 6.6875 0 L 6.6875 -5.734375 C 6.6875 -6.015625 6.660156 -6.210938 6.609375 -6.328125 C 6.554688 -6.453125 6.445312 -6.515625 6.28125 -6.515625 C 6.15625 -6.515625 6.023438 -6.472656 5.890625 -6.390625 C 5.753906 -6.316406 5.609375 -6.179688 5.453125 -5.984375 L 5.453125 0 L 3.75 0 L 3.75 -5.734375 C 3.75 -6.015625 3.722656 -6.210938 3.671875 -6.328125 C 3.617188 -6.453125 3.507812 -6.515625 3.34375 -6.515625 C 3.21875 -6.515625 3.085938 -6.472656 2.953125 -6.390625 C 2.816406 -6.316406 2.664062 -6.179688 2.5 -5.984375 L 2.5 0 L 0.40625 0 L 0.40625 -8.109375 L 2.171875 -8.109375 L 2.34375 -7.328125 C 2.59375 -7.671875 2.847656 -7.929688 3.109375 -8.109375 C 3.367188 -8.285156 3.675781 -8.375 4.03125 -8.375 C 4.34375 -8.375 4.601562 -8.296875 4.8125 -8.140625 C 5.03125 -7.992188 5.1875 -7.753906 5.28125 -7.421875 C 5.519531 -7.703125 5.785156 -7.929688 6.078125 -8.109375 C 6.378906 -8.285156 6.707031 -8.375 7.0625 -8.375 Z M 7.0625 -8.375 "/></g></g></g></svg>
