<svg xmlns="http://www.w3.org/2000/svg" xmlns:xlink="http://www.w3.org/1999/xlink" width="70" zoomAndPan="magnify" viewBox="0 0 52.5 30.000001" height="40" preserveAspectRatio="xMidYMid meet" version="1.0"><defs><clipPath id="0f8a3994cc"><path d="M 0.605469 0 L 51.410156 0 L 51.410156 29.03125 L 0.605469 29.03125 Z M 0.605469 0 " clip-rule="nonzero"/></clipPath><clipPath id="4968b2c502"><path d="M 13.601562 7 L 21 7 L 21 19 L 13.601562 19 Z M 13.601562 7 " clip-rule="nonzero"/></clipPath><clipPath id="05b7ec80ac"><path d="M 21 5.078125 L 29 5.078125 L 29 21.046875 L 21 21.046875 Z M 21 5.078125 " clip-rule="nonzero"/></clipPath><clipPath id="8fe65eff79"><path d="M 2 5.769531 L 12.136719 5.769531 L 12.136719 21.011719 L 2 21.011719 Z M 2 5.769531 " clip-rule="nonzero"/></clipPath><clipPath id="71dc8e8ff6"><path d="M 37.566406 5.671875 L 51.355469 5.671875 L 51.355469 18 L 37.566406 18 Z M 37.566406 5.671875 " clip-rule="nonzero"/></clipPath></defs><g clip-path="url(#0f8a3994cc)"><path fill="#ffffff" d="M 0.605469 0 L 51.410156 0 L 51.410156 29.03125 L 0.605469 29.03125 Z M 0.605469 0 " fill-opacity="1" fill-rule="nonzero"/><path fill="#ffffff" d="M 0.605469 0 L 51.410156 0 L 51.410156 29.03125 L 0.605469 29.03125 Z M 0.605469 0 " fill-opacity="1" fill-rule="nonzero"/></g><g clip-path="url(#4968b2c502)"><path fill="#000000" d="M 19.304688 18.796875 C 18.972656 18.796875 18.75 18.683594 18.53125 18.457031 L 14.09375 13.960938 C 13.648438 13.511719 13.648438 12.835938 14.09375 12.386719 L 18.53125 7.886719 C 18.972656 7.4375 19.640625 7.4375 20.082031 7.886719 C 20.527344 8.339844 20.527344 9.011719 20.082031 9.460938 L 16.421875 13.171875 L 20.082031 16.882812 C 20.527344 17.335938 20.527344 18.007812 20.082031 18.457031 C 19.859375 18.683594 19.640625 18.796875 19.304688 18.796875 Z M 19.304688 18.796875 " fill-opacity="1" fill-rule="nonzero"/></g><path fill="#000000" d="M 30.398438 18.796875 C 30.066406 18.796875 29.84375 18.683594 29.625 18.457031 C 29.179688 18.007812 29.179688 17.335938 29.625 16.882812 L 33.285156 13.171875 L 29.625 9.460938 C 29.179688 9.011719 29.179688 8.339844 29.625 7.886719 C 30.066406 7.4375 30.734375 7.4375 31.175781 7.886719 L 35.613281 12.386719 C 36.058594 12.835938 36.058594 13.511719 35.613281 13.960938 L 31.175781 18.457031 C 30.953125 18.683594 30.734375 18.796875 30.398438 18.796875 Z M 30.398438 18.796875 " fill-opacity="1" fill-rule="nonzero"/><g clip-path="url(#05b7ec80ac)"><path fill="#000000" d="M 22.632812 21.046875 C 22.523438 21.046875 22.414062 21.046875 22.300781 20.933594 C 21.746094 20.707031 21.414062 20.144531 21.636719 19.472656 L 26.074219 5.976562 C 26.296875 5.414062 26.851562 5.078125 27.515625 5.300781 C 28.070312 5.527344 28.402344 6.089844 28.179688 6.765625 L 23.742188 20.257812 C 23.523438 20.707031 23.078125 21.046875 22.632812 21.046875 Z M 22.632812 21.046875 " fill-opacity="1" fill-rule="nonzero"/></g><g clip-path="url(#8fe65eff79)"><path fill="#ed1b24" d="M 7.148438 5.769531 C 3.996094 5.769531 2.207031 7.535156 2.15625 10.09375 L 2.15625 10.222656 L 4.941406 10.222656 L 4.941406 10.09375 C 5 8.964844 5.78125 8.234375 6.964844 8.234375 C 8.136719 8.234375 8.914062 8.914062 8.914062 9.867188 C 8.914062 10.824219 8.515625 11.316406 7.191406 12.109375 C 5.773438 12.941406 5.207031 13.863281 5.339844 15.507812 L 5.355469 15.945312 L 8.082031 15.945312 L 8.082031 15.527344 C 8.082031 14.542969 8.464844 14.039062 9.828125 13.25 C 11.277344 12.394531 12.027344 11.316406 12.027344 9.777344 C 12.027344 7.402344 10.085938 5.769531 7.148438 5.769531 Z M 6.777344 17.855469 C 5.734375 17.855469 5.082031 18.460938 5.082031 19.449219 C 5.082031 20.429688 5.734375 21.035156 6.777344 21.035156 C 7.824219 21.035156 8.46875 20.429688 8.46875 19.449219 C 8.46875 18.460938 7.824219 17.855469 6.777344 17.855469 Z M 6.777344 17.855469 " fill-opacity="1" fill-rule="nonzero"/></g><g clip-path="url(#71dc8e8ff6)"><path fill="#1de200" d="M 37.730469 12.457031 C 38.148438 13.296875 38.5625 14.136719 38.980469 14.972656 C 39.394531 15.8125 39.839844 16.636719 40.234375 17.480469 C 40.363281 17.761719 40.699219 17.929688 40.992188 17.96875 C 41.308594 18.011719 41.640625 17.921875 41.867188 17.6875 C 42.886719 16.644531 43.847656 15.542969 44.804688 14.445312 C 45.761719 13.339844 46.734375 12.246094 47.703125 11.148438 C 48.296875 10.476562 48.882812 9.796875 49.4375 9.09375 C 49.382812 9.167969 49.324219 9.238281 49.269531 9.308594 C 49.574219 8.917969 49.890625 8.53125 50.199219 8.144531 C 50.539062 7.726562 50.855469 7.285156 51.175781 6.847656 C 51.355469 6.601562 51.28125 6.179688 51.058594 5.980469 C 50.835938 5.785156 50.429688 5.675781 50.171875 5.867188 C 49.753906 6.175781 49.324219 6.480469 48.929688 6.816406 C 48.582031 7.113281 48.234375 7.410156 47.890625 7.707031 C 47.1875 8.316406 46.53125 8.96875 45.890625 9.640625 C 44.625 10.964844 43.394531 12.332031 42.253906 13.765625 C 41.882812 14.230469 41.519531 14.695312 41.160156 15.164062 C 40.832031 15.585938 40.527344 16.015625 40.234375 16.460938 C 40.832031 16.460938 41.433594 16.460938 42.03125 16.460938 C 41.484375 15.699219 40.988281 14.898438 40.46875 14.125 C 39.945312 13.339844 39.425781 12.566406 38.902344 11.789062 C 38.707031 11.496094 38.296875 11.347656 37.976562 11.550781 C 37.648438 11.757812 37.566406 12.121094 37.730469 12.457031 Z M 37.730469 12.457031 " fill-opacity="1" fill-rule="nonzero"/></g></svg>